<svg width="170" height="166" viewBox="0 0 170 166" fill="none" xmlns="http://www.w3.org/2000/svg">
<path d="M40.4243 17.1031C50.2119 9.98068 61.3448 4.9214 73.1471 2.23238C84.9494 -0.456636 97.1751 -0.7193 109.082 1.46033C130.489 5.55591 153.394 18.1839 164.353 51.0054C187.96 121.692 132.385 186.501 93.0221 158.552C55.9534 132.234 -61.0169 89.8564 40.4243 17.1031Z" fill="#FFFCE5"/>
<path d="M16.8179 97.118C19.1311 88.554 23.1567 80.5479 28.6513 73.5835C34.1459 66.6191 40.9955 60.841 48.7861 56.5984C62.8931 49.014 81.7972 45.6958 103.204 59.3667C149.317 88.8321 147.554 151.403 112.135 153.584C78.8203 155.67 -7.52805 185.476 16.8179 97.118Z" fill="#FFFAD2"/>
<path d="M73.7008 95.7722L43.3632 65.4346C41.827 63.8983 40.9639 61.8147 40.9639 59.642C40.9639 57.4694 41.827 55.3858 43.3632 53.8495C44.8995 52.3132 46.9832 51.4501 49.1558 51.4501C51.3284 51.4501 53.4121 52.3132 54.9484 53.8495L85.286 84.187L91.6 94.0088L104.683 110.638C105.219 111.25 105.501 112.044 105.473 112.857C105.445 113.671 105.109 114.443 104.532 115.018C103.955 115.592 103.181 115.925 102.368 115.95C101.554 115.975 100.762 115.689 100.151 115.15L83.5036 102.105L73.7008 95.7722Z" stroke="#1D1D1B" stroke-width="1.29" stroke-miterlimit="10" stroke-linecap="round"/>
<path d="M46.7004 68.7717L58.2856 57.1865" stroke="#1D1D1B" stroke-width="1.29" stroke-miterlimit="10" stroke-linecap="round"/>
<path d="M94.52 110.05L99.5636 105.007" stroke="#1D1D1B" stroke-width="1.29" stroke-miterlimit="10" stroke-linecap="round"/>
<path d="M65.3456 75.0448L64.5546 75.8358C63.3106 77.0798 63.3106 79.0967 64.5546 80.3407L75.1196 90.9058C76.3636 92.1498 78.3805 92.1498 79.6245 90.9058L80.4156 90.1147C81.6596 88.8707 81.6596 86.8538 80.4156 85.6098L69.8505 75.0448C68.6065 73.8008 66.5896 73.8008 65.3456 75.0448Z" stroke="#1D1D1B" stroke-width="1.29" stroke-miterlimit="10" stroke-linecap="round"/>
<path d="M61.2057 66.3827C61.7436 66.9099 62.1123 67.5855 62.2648 68.3231C62.4173 69.0608 62.3466 69.8272 62.0619 70.5245C61.7771 71.2219 61.2911 71.8186 60.6658 72.2387C60.0406 72.6587 59.3044 72.883 58.5511 72.883C57.7979 72.883 57.0617 72.6587 56.4364 72.2387C55.8111 71.8186 55.3251 71.2219 55.0404 70.5245C54.7556 69.8272 54.6849 69.0608 54.8374 68.3231C54.9899 67.5855 55.3586 66.9099 55.8966 66.3827C56.6055 65.6878 57.5585 65.2986 58.5511 65.2986C59.5437 65.2986 60.4968 65.6878 61.2057 66.3827V66.3827Z" stroke="#1D1D1B" stroke-width="1.29" stroke-miterlimit="10" stroke-linecap="round"/>
<path d="M100.095 91.1075V78.707H92.3585L103.356 60.0873L114.524 78.707H107.205L107.907 104.854" stroke="#1D1D1B" stroke-width="1.29" stroke-linecap="round" stroke-linejoin="round"/>
</svg>
