<svg width="170" height="166" viewBox="0 0 170 166" fill="none" xmlns="http://www.w3.org/2000/svg">
<path d="M40.4242 17.0953C50.2131 9.97863 61.3447 4.92297 73.1448 2.23447C84.9448 -0.454023 97.1678 -0.719407 109.073 1.45439C130.478 5.56841 153.399 18.1759 164.357 50.9933C187.96 121.69 132.355 186.491 93.0154 158.546C55.9703 132.212 -61.0233 89.7637 40.4242 17.0953Z" fill="#FFEBC9"/>
<path d="M82.19 127.283H82.0573C70.6821 124.761 64.4258 118.922 61.2028 114.486C59.1501 111.741 57.6969 108.595 56.9371 105.253L56.8044 104.476L57.5817 104.286C66.0373 102.238 65.6391 96.2665 65.6391 96.1906V95.6408L66.1131 95.3754C71.3594 92.6821 77.1741 91.2836 83.0713 91.2968C88.9686 91.31 94.777 92.7345 100.011 95.4512L100.39 95.6787V96.1338C100.637 100.892 107.974 104.362 107.974 104.4L108.599 104.703L108.448 105.367C103.879 125.103 82.3607 127.34 82.1521 127.359L82.19 127.283ZM58.833 105.708C59.7051 108.912 64.2362 121.538 82.2848 125.576C83.9911 125.368 102.4 122.752 106.817 105.556C104.921 104.551 99.4424 101.29 98.8547 96.6267C93.9626 94.182 88.5689 92.9094 83.1 92.9094C77.6312 92.9094 72.2374 94.182 67.3454 96.6267C67.2506 98.3709 66.3027 103.547 58.833 105.708Z" fill="#1D1D1B"/>
<path d="M82.19 127.283H82.0573C70.6821 124.761 64.4258 118.922 61.2028 114.486C59.1501 111.741 57.6969 108.595 56.9371 105.253L56.8044 104.476L57.5817 104.286C66.0373 102.238 65.6391 96.2665 65.6391 96.1906V95.6408L66.1131 95.3754C71.3594 92.6821 77.1741 91.2836 83.0713 91.2968C88.9686 91.31 94.777 92.7345 100.011 95.4512L100.39 95.6787V96.1338C100.637 100.892 107.974 104.362 107.974 104.4L108.599 104.703L108.448 105.367C103.879 125.103 82.3607 127.34 82.1521 127.359L82.19 127.283ZM58.833 105.708C59.7051 108.912 64.2362 121.538 82.2848 125.576C83.9911 125.368 102.4 122.752 106.817 105.556C104.921 104.551 99.4424 101.29 98.8547 96.6267C93.9626 94.182 88.5689 92.9094 83.1 92.9094C77.6312 92.9094 72.2374 94.182 67.3454 96.6267C67.2506 98.3709 66.3027 103.547 58.833 105.708Z" stroke="#1D1D1B" stroke-width="0.5" stroke-miterlimit="10"/>
<path d="M109.49 100.609C109.307 100.604 109.131 100.541 108.986 100.428C108.842 100.316 108.738 100.16 108.689 99.9834C108.64 99.807 108.649 99.6196 108.715 99.4488C108.781 99.278 108.9 99.1329 109.054 99.0349C111.766 97.4045 114.988 92.9303 114.003 88.7215C113.187 85.3279 109.509 84.9297 108.315 84.9297L100.428 96.6462C100.298 96.8269 100.104 96.9512 99.8857 96.9935C99.6672 97.0358 99.4408 96.9929 99.2528 96.8737C99.0682 96.7468 98.9408 96.5525 98.8982 96.3326C98.8557 96.1126 98.9013 95.8848 99.0253 95.6982L107.405 83.2614H107.841C110.135 83.1666 114.704 84.0956 115.709 88.4181C116.941 93.6128 113.017 98.7506 110.021 100.552C109.899 100.638 109.754 100.684 109.604 100.684" fill="#1D1D1B"/>
<path d="M109.49 100.609C109.307 100.604 109.131 100.541 108.986 100.428C108.842 100.316 108.738 100.16 108.689 99.9834C108.64 99.807 108.649 99.6196 108.715 99.4488C108.781 99.278 108.9 99.1329 109.054 99.0349C111.766 97.4045 114.988 92.9303 114.003 88.7215C113.187 85.3279 109.509 84.9297 108.315 84.9297L100.428 96.6462C100.298 96.8269 100.104 96.9512 99.8857 96.9935C99.6672 97.0358 99.4408 96.9929 99.2528 96.8737C99.0682 96.7468 98.9408 96.5525 98.8982 96.3326C98.8557 96.1126 98.9013 95.8848 99.0253 95.6982L107.405 83.2614H107.841C110.135 83.1666 114.704 84.0956 115.709 88.4181C116.941 93.6128 113.017 98.7506 110.021 100.552C109.858 100.638 109.668 100.658 109.49 100.609V100.609Z" stroke="#1D1D1B" stroke-width="0.5" stroke-miterlimit="10"/>
<path d="M55.6669 100.608C55.5116 100.609 55.3597 100.562 55.2309 100.475C52.1975 98.6744 48.292 93.5366 49.5433 88.342C50.5481 84.0194 55.1361 83.1094 57.4111 83.1852H57.8092L67.2886 95.9254C67.3924 96.1071 67.4259 96.3206 67.3826 96.5254C67.3393 96.7301 67.2222 96.9118 67.0537 97.0359C66.8851 97.16 66.6768 97.2178 66.4685 97.1983C66.2601 97.1788 66.0662 97.0834 65.9235 96.9302L57.0319 84.8536C55.7996 84.8536 52.0648 85.2896 51.2496 88.6453C50.2637 92.8541 53.4867 97.3283 56.1978 98.9588C56.3524 99.0568 56.4714 99.2019 56.5372 99.3727C56.6031 99.5435 56.6122 99.7309 56.5633 99.9073C56.5144 100.084 56.4101 100.24 56.2658 100.352C56.1214 100.465 55.9447 100.528 55.7617 100.532" fill="#1D1D1B"/>
<path d="M55.6669 100.608C55.5116 100.609 55.3597 100.562 55.2309 100.475C52.1975 98.6744 48.292 93.5366 49.5433 88.342C50.5481 84.0194 55.1361 83.1094 57.4111 83.1852H57.8092L67.2886 95.9254C67.3924 96.1071 67.4259 96.3206 67.3826 96.5254C67.3393 96.7301 67.2222 96.9118 67.0537 97.0359C66.8851 97.16 66.6768 97.2178 66.4685 97.1983C66.2601 97.1788 66.0662 97.0834 65.9235 96.9302L57.0319 84.8536C55.7996 84.8536 52.0648 85.2896 51.2496 88.6453C50.2637 92.8541 53.4867 97.3283 56.1978 98.9588C56.3524 99.0568 56.4714 99.2019 56.5372 99.3727C56.6031 99.5435 56.6122 99.7309 56.5633 99.9073C56.5144 100.084 56.4101 100.24 56.2658 100.352C56.1214 100.465 55.9447 100.528 55.7617 100.532L55.6669 100.608Z" stroke="#1D1D1B" stroke-width="0.5" stroke-miterlimit="10"/>
<path d="M112.353 85.9723H112.069C111.962 85.9385 111.863 85.8831 111.778 85.8093C111.693 85.7356 111.625 85.6451 111.577 85.5437C111.529 85.4422 111.502 85.332 111.499 85.2197C111.495 85.1075 111.515 84.9958 111.557 84.8916C117.396 68.4924 115.633 60.6056 113.112 56.8897C112.361 55.7205 111.355 54.7362 110.17 54.0106C108.984 53.285 107.65 52.8369 106.267 52.6999H105.869L105.623 52.3776C97.4896 41.5522 85.4319 41.192 78.986 41.9504C68.0469 43.2016 57.8092 49.3442 54.6621 56.5295C48.6901 70.0849 53.5625 84.7779 53.6004 84.9675C53.6353 85.072 53.6492 85.1824 53.6414 85.2924C53.6336 85.4023 53.6042 85.5097 53.5549 85.6082C53.5056 85.7068 53.4373 85.7947 53.3541 85.867C53.2708 85.9392 53.1741 85.9943 53.0696 86.0291C52.965 86.064 52.8546 86.0779 52.7446 86.0701C52.6347 86.0623 52.5274 86.0329 52.4288 85.9836C52.3302 85.9343 52.2423 85.8661 52.1701 85.7828C52.0978 85.6995 52.0427 85.6029 52.0079 85.4983C51.7993 84.8916 46.8701 70.066 53.1075 55.8849C56.5011 48.1877 67.2885 41.6281 78.7964 40.301C90.3043 38.9738 100.409 42.9172 106.741 51.1074C108.304 51.3196 109.804 51.8621 111.141 52.699C112.478 53.5358 113.622 54.6477 114.495 55.9608C118.496 61.8379 118.041 71.7912 113.149 85.5173C113.089 85.6808 112.981 85.8225 112.839 85.9238C112.697 86.0252 112.528 86.0817 112.353 86.086" fill="#1D1D1B"/>
<path d="M112.353 85.9723H112.069C111.962 85.9385 111.863 85.8831 111.778 85.8093C111.693 85.7356 111.625 85.6451 111.577 85.5437C111.529 85.4422 111.502 85.332 111.499 85.2197C111.495 85.1075 111.515 84.9958 111.557 84.8916C117.396 68.4924 115.633 60.6056 113.112 56.8897C112.361 55.7204 111.355 54.7362 110.17 54.0106C108.984 53.285 107.65 52.8369 106.267 52.6999H105.869L105.623 52.3776C97.4896 41.5522 85.4319 41.192 78.986 41.9504C68.0469 43.2016 57.8092 49.3442 54.6621 56.5295C48.6901 70.0849 53.5625 84.7779 53.6004 84.9675C53.6353 85.072 53.6492 85.1824 53.6414 85.2924C53.6336 85.4023 53.6042 85.5097 53.5549 85.6082C53.5056 85.7068 53.4373 85.7947 53.3541 85.867C53.2708 85.9392 53.1741 85.9943 53.0696 86.0291C52.965 86.064 52.8546 86.0779 52.7446 86.0701C52.6347 86.0623 52.5274 86.0329 52.4288 85.9836C52.3302 85.9343 52.2423 85.8661 52.1701 85.7828C52.0978 85.6995 52.0427 85.6029 52.0079 85.4983C51.7993 84.8916 46.8701 70.066 53.1075 55.8849C56.5011 48.1877 67.2885 41.6281 78.7964 40.301C90.3043 38.9738 100.409 42.9172 106.741 51.1074C108.304 51.3196 109.804 51.8621 111.141 52.699C112.478 53.5358 113.622 54.6477 114.495 55.9608C118.496 61.8379 118.041 71.7912 113.149 85.5173C113.072 85.6596 112.957 85.7775 112.816 85.8579C112.675 85.9383 112.515 85.9779 112.353 85.9723V85.9723Z" stroke="#1D1D1B" stroke-width="0.5" stroke-miterlimit="10"/>
<path d="M107.803 84.873H107.595C107.486 84.8526 107.382 84.8108 107.29 84.75C107.198 84.6892 107.118 84.6107 107.057 84.519C106.995 84.4272 106.952 84.3241 106.93 84.2157C106.909 84.1072 106.909 83.9955 106.931 83.8872C108.656 74.6922 105.206 69.1374 103.803 67.3173C94.9872 76.2279 81.5455 72.3793 72.5781 69.8009C69.9183 68.8773 67.1548 68.2851 64.3501 68.0378C59.0416 68.1705 58.0937 79.6215 58.1695 84.0199C58.1721 84.131 58.1523 84.2415 58.1116 84.3449C58.0708 84.4483 58.0097 84.5426 57.932 84.622C57.8543 84.7015 57.7615 84.7647 57.659 84.8078C57.5566 84.8509 57.4465 84.8731 57.3354 84.873C57.1169 84.8687 56.908 84.7826 56.75 84.6316C56.592 84.4806 56.4964 84.2759 56.4822 84.0578C56.4822 83.3374 56.2547 66.54 64.3121 66.3505C67.2912 66.5872 70.2246 67.2249 73.0331 68.2463C82.3987 70.8057 95.1389 74.5975 103.234 65.4973L103.822 64.8527L104.448 65.4594C104.713 65.7059 110.931 71.9053 108.618 84.1905C108.583 84.3813 108.482 84.5539 108.334 84.6785C108.185 84.8031 107.997 84.8718 107.803 84.873Z" fill="#1D1D1B"/>
<path d="M107.803 84.873H107.595C107.486 84.8526 107.382 84.8108 107.29 84.75C107.198 84.6892 107.118 84.6107 107.057 84.519C106.995 84.4272 106.952 84.3241 106.93 84.2157C106.909 84.1072 106.909 83.9955 106.931 83.8872C108.656 74.6922 105.206 69.1374 103.803 67.3173C94.9872 76.2279 81.5455 72.3793 72.5781 69.8009C69.9183 68.8773 67.1548 68.2851 64.3501 68.0378C59.0416 68.1705 58.0937 79.6215 58.1695 84.0199C58.1721 84.131 58.1523 84.2415 58.1116 84.3449C58.0708 84.4483 58.0097 84.5426 57.932 84.622C57.8543 84.7015 57.7615 84.7647 57.659 84.8078C57.5566 84.8509 57.4465 84.8731 57.3354 84.873C57.1169 84.8687 56.908 84.7826 56.75 84.6316C56.592 84.4806 56.4964 84.2759 56.4822 84.0578C56.4822 83.3374 56.2547 66.54 64.3121 66.3505C67.2912 66.5872 70.2246 67.2249 73.0331 68.2463C82.3987 70.8057 95.1389 74.5975 103.234 65.4973L103.822 64.8527L104.448 65.4594C104.713 65.7059 110.931 71.9053 108.618 84.1905C108.583 84.3813 108.482 84.5539 108.334 84.6785C108.185 84.8031 107.997 84.8718 107.803 84.873V84.873Z" stroke="#1D1D1B" stroke-width="0.5" stroke-miterlimit="10"/>
<path d="M75.3649 86.4655C75.3762 86.9539 75.2409 87.4345 74.9765 87.8452C74.7122 88.256 74.3309 88.5782 73.8817 88.7704C73.4326 88.9625 72.9362 89.0157 72.4566 88.9231C71.9769 88.8306 71.536 88.5965 71.1906 88.2511C70.8452 87.9057 70.6111 87.4648 70.5185 86.9851C70.426 86.5055 70.4792 86.0091 70.6713 85.5599C70.8634 85.1108 71.1856 84.7295 71.5964 84.4652C72.0072 84.2008 72.4878 84.0655 72.9762 84.0768C73.6067 84.0865 74.2086 84.3413 74.6544 84.7872C75.1003 85.2331 75.3552 85.835 75.3649 86.4655Z" fill="#1D1D1B"/>
<path d="M75.3649 86.4655C75.3762 86.9539 75.2409 87.4345 74.9765 87.8452C74.7122 88.256 74.3309 88.5782 73.8817 88.7704C73.4326 88.9625 72.9362 89.0157 72.4566 88.9231C71.9769 88.8306 71.536 88.5965 71.1906 88.2511C70.8452 87.9057 70.6111 87.4648 70.5185 86.9851C70.426 86.5055 70.4792 86.0091 70.6713 85.5599C70.8634 85.1108 71.1856 84.7295 71.5964 84.4652C72.0072 84.2008 72.4878 84.0655 72.9762 84.0768C73.6067 84.0865 74.2086 84.3413 74.6544 84.7872C75.1003 85.2331 75.3552 85.835 75.3649 86.4655V86.4655Z" stroke="#1D1D1B" stroke-width="0.5" stroke-miterlimit="10"/>
<path d="M95.8212 86.465C95.8325 86.9509 95.6987 87.4293 95.437 87.8389C95.1752 88.2484 94.7973 88.5707 94.3515 88.7646C93.9058 88.9585 93.4123 89.0151 92.9342 88.9272C92.4561 88.8394 92.0151 88.6111 91.6673 88.2714C91.3196 87.9318 91.0809 87.4962 90.9819 87.0203C90.8828 86.5444 90.9278 86.0498 91.1111 85.5995C91.2944 85.1493 91.6077 84.764 92.0111 84.4926C92.4144 84.2213 92.8894 84.0763 93.3755 84.0762C93.6958 84.0737 94.0134 84.1346 94.31 84.2554C94.6066 84.3763 94.8764 84.5546 95.1038 84.7802C95.3311 85.0058 95.5116 85.2742 95.6347 85.5698C95.7578 85.8655 95.8212 86.1826 95.8212 86.5029" fill="#1D1D1B"/>
<path d="M95.8212 86.465C95.8325 86.9509 95.6987 87.4293 95.437 87.8389C95.1752 88.2485 94.7973 88.5708 94.3515 88.7646C93.9058 88.9585 93.4123 89.0151 92.9342 88.9272C92.4561 88.8394 92.0151 88.6111 91.6673 88.2714C91.3196 87.9318 91.0809 87.4962 90.9819 87.0203C90.8828 86.5444 90.9278 86.0498 91.1111 85.5996C91.2944 85.1493 91.6077 84.764 92.0111 84.4926C92.4144 84.2213 92.8894 84.0763 93.3755 84.0762C94.0159 84.0711 94.6323 84.3193 95.0904 84.7668C95.5485 85.2143 95.8112 85.8247 95.8212 86.465V86.465Z" stroke="#1D1D1B" stroke-width="0.5" stroke-miterlimit="10"/>
<g style="mix-blend-mode:overlay" opacity="0.39">
<g style="mix-blend-mode:overlay" opacity="0.39">
<g style="mix-blend-mode:overlay" opacity="0.39">
<g style="mix-blend-mode:overlay" opacity="0.39">
<path d="M16.8207 97.1197C19.1214 88.534 23.1451 80.5062 28.6467 73.5249C34.1484 66.5435 41.013 60.7546 48.8228 56.5103C62.928 48.9269 81.8487 45.5902 103.234 59.2593C149.304 88.721 147.408 151.36 112.126 153.578C78.8154 155.645 -7.50323 185.448 16.8207 97.1197Z" fill="#FFEBC9"/>
</g>
</g>
</g>
</g>
<g style="mix-blend-mode:overlay" opacity="0.39" clip-path="url(#clip0)">
<path d="M16.9724 92.6456C21.7121 75.3932 33.0872 60.4159 49.0125 52.0741C63.0418 44.4907 82.0005 41.0781 103.424 54.9179C149.493 84.3038 147.787 147.057 112.334 149.142C78.9671 151.228 -7.29464 180.993 16.9724 92.6456Z" fill="#FFEBC9"/>
</g>
<defs>
<clipPath id="clip0">
<rect width="125.696" height="110.15" fill="white" transform="translate(12.8015 45.4387)"/>
</clipPath>
</defs>
</svg>
