<svg width="170" height="179" viewBox="0 0 170 179" fill="none" xmlns="http://www.w3.org/2000/svg">
<path d="M42.2946 125.792C42.2075 125.795 42.1208 125.779 42.0404 125.746C41.9599 125.712 41.8878 125.662 41.8288 125.597C41.7654 125.538 41.7148 125.465 41.6803 125.385C41.6457 125.305 41.6279 125.219 41.6279 125.132C41.6279 125.044 41.6457 124.958 41.6803 124.878C41.7148 124.798 41.7654 124.726 41.8288 124.666L48.3885 118.029C49.1558 117.265 49.7651 116.358 50.1814 115.359C50.5977 114.36 50.8128 113.289 50.8144 112.206V106.384C50.7972 104.563 51.4938 102.807 52.7551 101.494L65.1563 89.0924L65.6221 89.4029C66.5263 90.1316 67.2555 91.0539 67.756 92.1018C68.2564 93.1498 68.5154 94.2966 68.5138 95.4579L76.6454 87.3457C78.101 86.1813 81.2644 84.6869 83.2439 86.8799C83.8566 87.5015 84.2689 88.2924 84.4278 89.1506L85.1264 88.4907C85.8378 88.0509 86.6577 87.8179 87.4941 87.8179C88.3305 87.8179 89.1504 88.0509 89.8618 88.4907C90.5325 89.0233 90.9869 89.7813 91.1404 90.6239C91.2939 91.4664 91.1361 92.336 90.6963 93.0709C90.656 93.153 90.5991 93.2259 90.5292 93.2849C90.4592 93.3438 90.3778 93.3876 90.29 93.4134C90.2022 93.4392 90.11 93.4465 90.0193 93.4348C89.9286 93.4231 89.8412 93.3926 89.7629 93.3453C89.6846 93.2981 89.6169 93.235 89.5643 93.1602C89.5116 93.0854 89.4751 93.0004 89.457 92.9107C89.4389 92.8211 89.4397 92.7286 89.4593 92.6392C89.4788 92.5499 89.5168 92.4655 89.5707 92.3916C89.8386 91.9254 89.9293 91.378 89.8258 90.8503C89.7224 90.3226 89.432 89.85 89.0079 89.5193C87.9017 88.5878 86.2132 89.3641 85.8445 89.5193L83.6127 91.9064L82.6811 90.9555C82.8169 90.8196 83.9232 89.5581 82.3318 87.7727C80.7404 85.9872 77.6158 88.3161 77.5964 88.3355L66.8642 99.0677L67.1553 97.127C67.3829 96.0125 67.3358 94.8594 67.0179 93.7672C66.7001 92.6751 66.1211 91.6767 65.331 90.8584L53.6866 102.503C52.6825 103.548 52.1136 104.935 52.0952 106.384V112.206C52.0903 114.717 51.0927 117.124 49.32 118.902L42.7604 125.462C42.6999 125.524 42.6274 125.573 42.5474 125.606C42.4673 125.64 42.3813 125.657 42.2946 125.656" fill="#1D1D1B"/>
<path d="M42.2946 125.792C42.2075 125.795 42.1208 125.779 42.0404 125.746C41.9599 125.712 41.8878 125.662 41.8288 125.597C41.7654 125.538 41.7148 125.465 41.6803 125.385C41.6457 125.305 41.6279 125.219 41.6279 125.132C41.6279 125.044 41.6457 124.958 41.6803 124.878C41.7148 124.798 41.7654 124.726 41.8288 124.666L48.3885 118.029C49.1558 117.265 49.7651 116.358 50.1814 115.359C50.5977 114.36 50.8128 113.289 50.8144 112.206V106.384C50.7972 104.563 51.4938 102.807 52.7551 101.494L65.1563 89.0924L65.6221 89.4029C66.5263 90.1316 67.2555 91.0539 67.756 92.1018C68.2564 93.1498 68.5154 94.2966 68.5138 95.4579L76.6454 87.3457C78.101 86.1813 81.2644 84.6869 83.2439 86.8799C83.8566 87.5015 84.2689 88.2924 84.4278 89.1506L85.1264 88.4907C85.8378 88.0509 86.6577 87.8179 87.4941 87.8179C88.3305 87.8179 89.1504 88.0509 89.8618 88.4907C90.5325 89.0233 90.9869 89.7813 91.1404 90.6239C91.2939 91.4664 91.1361 92.336 90.6963 93.0709C90.656 93.153 90.5991 93.2259 90.5292 93.2849C90.4592 93.3438 90.3778 93.3876 90.29 93.4134C90.2022 93.4392 90.11 93.4465 90.0193 93.4348C89.9286 93.4231 89.8412 93.3926 89.7629 93.3453C89.6846 93.2981 89.6169 93.235 89.5643 93.1602C89.5116 93.0854 89.4751 93.0004 89.457 92.9107C89.4389 92.8211 89.4397 92.7286 89.4593 92.6392C89.4788 92.5499 89.5168 92.4655 89.5707 92.3916C89.8386 91.9254 89.9293 91.378 89.8258 90.8503C89.7224 90.3226 89.432 89.85 89.0079 89.5193C87.9017 88.5878 86.2132 89.3641 85.8445 89.5193L83.6126 91.9064L82.6811 90.9555C82.8169 90.8196 83.9232 89.5581 82.3318 87.7727C80.7404 85.9872 77.6158 88.3161 77.5964 88.3355L66.8642 99.0677L67.1553 97.127C67.3829 96.0125 67.3358 94.8594 67.0179 93.7672C66.7001 92.6751 66.1211 91.6767 65.331 90.8584L53.6866 102.503C52.6825 103.548 52.1136 104.935 52.0952 106.384V112.206C52.0903 114.717 51.0927 117.124 49.32 118.902L42.7604 125.462C42.7135 125.549 42.6471 125.624 42.5663 125.681C42.4854 125.739 42.3924 125.776 42.2946 125.792Z" stroke="#1D1D1B" stroke-width="0.5" stroke-miterlimit="10"/>
<path d="M62.6528 122.181C62.5381 122.21 62.4181 122.21 62.3034 122.181C62.2293 122.136 62.1649 122.076 62.1139 122.005C62.063 121.934 62.0266 121.854 62.0067 121.77C61.9869 121.685 61.984 121.597 61.9983 121.511C62.0126 121.425 62.0437 121.343 62.09 121.269C67.621 112.264 59.994 105.297 59.9163 105.219L59.3923 104.753L67.3299 96.6801C67.4607 96.582 67.6225 96.5343 67.7856 96.5459C67.9487 96.5575 68.1022 96.6276 68.2178 96.7432C68.3334 96.8588 68.4034 97.0122 68.415 97.1753C68.4266 97.3384 68.379 97.5002 68.2809 97.631L61.2943 104.618C63.5334 106.839 64.9465 109.759 65.2994 112.893C65.6524 116.027 64.924 119.188 63.235 121.851C63.1729 121.944 63.0893 122.021 62.9914 122.075C62.8935 122.129 62.784 122.159 62.6722 122.162" fill="#1D1D1B"/>
<path d="M62.6528 122.181C62.5381 122.21 62.4181 122.21 62.3034 122.181C62.2293 122.136 62.1649 122.076 62.1139 122.005C62.063 121.934 62.0266 121.854 62.0067 121.77C61.9869 121.685 61.984 121.597 61.9983 121.511C62.0126 121.425 62.0437 121.343 62.09 121.269C67.621 112.264 59.994 105.297 59.9163 105.219L59.3923 104.753L67.3299 96.6801C67.4607 96.582 67.6225 96.5343 67.7856 96.5459C67.9487 96.5575 68.1022 96.6276 68.2178 96.7432C68.3334 96.8588 68.4034 97.0122 68.415 97.1753C68.4266 97.3384 68.379 97.5002 68.2809 97.631L61.2943 104.618C63.5334 106.839 64.9465 109.759 65.2994 112.893C65.6524 116.027 64.924 119.188 63.235 121.851C63.1733 121.951 63.0877 122.033 62.9859 122.09C62.8842 122.148 62.7697 122.179 62.6528 122.181V122.181Z" stroke="#1D1D1B" stroke-width="0.5" stroke-miterlimit="10"/>
<path d="M53.3567 144.306C53.2697 144.309 53.1829 144.293 53.1025 144.26C53.0221 144.226 52.9499 144.176 52.8909 144.112C52.8275 144.052 52.777 143.98 52.7424 143.9C52.7079 143.819 52.6901 143.733 52.6901 143.646C52.6901 143.559 52.7079 143.472 52.7424 143.392C52.777 143.312 52.8275 143.24 52.8909 143.18L63.8366 132.234H68.8437C69.0187 132.234 69.1865 132.304 69.3103 132.428C69.434 132.551 69.5036 132.719 69.5036 132.894C69.5036 133.069 69.434 133.237 69.3103 133.361C69.1865 133.485 69.0187 133.554 68.8437 133.554H64.3994L53.8419 144.112C53.7814 144.174 53.709 144.223 53.6289 144.257C53.5489 144.29 53.4629 144.307 53.3761 144.306" fill="#1D1D1B"/>
<path d="M53.3567 144.306C53.2697 144.309 53.1829 144.293 53.1025 144.26C53.0221 144.226 52.9499 144.176 52.8909 144.112C52.8275 144.052 52.777 143.98 52.7424 143.9C52.7079 143.819 52.6901 143.733 52.6901 143.646C52.6901 143.559 52.7079 143.472 52.7424 143.392C52.777 143.312 52.8275 143.24 52.8909 143.18L63.8366 132.234H68.8437C69.0187 132.234 69.1865 132.304 69.3103 132.428C69.434 132.551 69.5036 132.719 69.5036 132.894C69.5036 133.069 69.434 133.237 69.3103 133.361C69.1865 133.485 69.0187 133.554 68.8437 133.554H64.3994L53.8419 144.112C53.7792 144.176 53.7036 144.227 53.62 144.26C53.5364 144.294 53.4467 144.309 53.3567 144.306Z" stroke="#1D1D1B" stroke-width="0.5" stroke-miterlimit="10"/>
<path d="M64.4965 133.166C64.4068 133.168 64.3177 133.151 64.2344 133.118C64.1512 133.085 64.0753 133.035 64.0113 132.972L58.7907 127.732C58.7273 127.673 58.6767 127.6 58.6422 127.52C58.6077 127.44 58.5898 127.354 58.5898 127.267C58.5898 127.179 58.6077 127.093 58.6422 127.013C58.6767 126.933 58.7273 126.861 58.7907 126.801C58.9144 126.678 59.0819 126.608 59.2565 126.608C59.4311 126.608 59.5986 126.678 59.7223 126.801L64.9622 132.041C65.0542 132.133 65.1168 132.251 65.1421 132.378C65.1674 132.506 65.1544 132.639 65.1045 132.759C65.0547 132.879 64.9704 132.982 64.8622 133.055C64.754 133.127 64.6267 133.166 64.4965 133.166Z" fill="#1D1D1B"/>
<path d="M64.4965 133.166C64.4068 133.168 64.3177 133.151 64.2344 133.118C64.1512 133.085 64.0753 133.035 64.0113 132.972L58.7907 127.732C58.7273 127.673 58.6767 127.6 58.6422 127.52C58.6077 127.44 58.5898 127.354 58.5898 127.267C58.5898 127.179 58.6077 127.093 58.6422 127.013C58.6767 126.933 58.7273 126.861 58.7907 126.801C58.9144 126.678 59.0819 126.608 59.2565 126.608C59.4311 126.608 59.5986 126.678 59.7223 126.801L64.9622 132.041C65.0542 132.133 65.1168 132.251 65.1421 132.378C65.1674 132.506 65.1544 132.639 65.1045 132.759C65.0547 132.879 64.9704 132.982 64.8622 133.055C64.754 133.127 64.6267 133.166 64.4965 133.166Z" stroke="#1D1D1B" stroke-width="0.5" stroke-miterlimit="10"/>
<path d="M108.512 151.681C108.337 151.68 108.17 151.611 108.046 151.487L104.786 148.207H102.438C100.956 148.212 99.488 147.923 98.1188 147.357C96.7496 146.79 95.5064 145.958 94.4612 144.908L77.6934 128.14C77.2174 127.678 76.849 127.116 76.6142 126.496C76.3794 125.876 76.2841 125.211 76.3349 124.549C76.4033 123.702 76.7674 122.905 77.3634 122.298C78.179 121.55 79.2453 121.135 80.3522 121.134L77.0141 117.796C76.5225 117.294 76.1847 116.662 76.0403 115.974C75.8959 115.286 75.9509 114.572 76.199 113.914C76.4502 113.195 76.8466 112.534 77.3634 111.974C77.8929 111.437 78.5673 111.066 79.3042 110.906L78.9354 110.537C78.1248 109.723 77.6697 108.62 77.6697 107.471C77.6697 106.322 78.1248 105.219 78.9354 104.405C79.2869 104.065 79.6703 103.759 80.0805 103.493C80.9138 102.974 81.8974 102.752 82.8727 102.861C83.8481 102.97 84.7582 103.404 85.4563 104.094L85.6503 104.288C85.8833 103.564 86.2744 102.902 86.7954 102.348C87.1577 101.969 87.593 101.668 88.075 101.462C88.5569 101.256 89.0756 101.15 89.5997 101.15C90.1238 101.15 90.6425 101.256 91.1245 101.462C91.6064 101.668 92.0417 101.969 92.4041 102.348L100.982 110.906C101.18 109.963 101.446 109.036 101.778 108.131C102.318 106.74 103.153 105.483 104.223 104.444L104.708 103.997L115.673 114.962C116.87 116.157 117.818 117.576 118.464 119.138C119.11 120.7 119.441 122.374 119.438 124.064V127.946C119.434 129.305 119.699 130.652 120.218 131.908C120.738 133.164 121.502 134.304 122.466 135.262L125.804 138.6C125.927 138.724 125.996 138.892 125.996 139.066C125.996 139.241 125.927 139.408 125.804 139.532C125.744 139.595 125.672 139.646 125.592 139.68C125.512 139.715 125.425 139.733 125.338 139.733C125.251 139.733 125.165 139.715 125.085 139.68C125.004 139.646 124.932 139.595 124.872 139.532L121.515 136.194C120.431 135.111 119.571 133.826 118.985 132.41C118.399 130.995 118.098 129.478 118.099 127.946V124.064C118.108 122.549 117.813 121.048 117.233 119.648C116.654 118.248 115.8 116.978 114.722 115.913L104.708 105.802C104.018 106.6 103.473 107.513 103.097 108.5C102.674 109.733 102.349 110.999 102.127 112.284L101.952 113.604L91.5696 103.202C91.0757 102.714 90.4098 102.441 89.7162 102.441C89.0225 102.441 88.3567 102.714 87.8628 103.202C87.2786 103.916 86.8967 104.774 86.7566 105.686L86.5625 107.005L84.6217 105.065C84.1439 104.584 83.5168 104.279 82.8432 104.202C82.1696 104.124 81.4896 104.278 80.915 104.638C80.581 104.845 80.2689 105.086 79.9834 105.356C79.4285 105.928 79.1182 106.694 79.1182 107.491C79.1182 108.288 79.4285 109.053 79.9834 109.625L82.9333 112.556L80.8179 112.206C80.3707 112.142 79.9146 112.176 79.482 112.307C79.0494 112.437 78.6508 112.662 78.3144 112.963C77.9243 113.367 77.6263 113.85 77.4411 114.38C77.286 114.803 77.2547 115.261 77.351 115.701C77.4472 116.141 77.667 116.545 77.9845 116.864L84.3306 123.191L81.8659 122.609C81.2517 122.436 80.6066 122.404 79.9783 122.515C79.3501 122.626 78.7548 122.877 78.2368 123.249C77.8531 123.632 77.6249 124.144 77.5963 124.685C77.5574 125.152 77.6245 125.621 77.7926 126.058C77.9606 126.495 78.2252 126.888 78.5667 127.208L95.451 143.976C96.3703 144.903 97.465 145.638 98.6711 146.138C99.8773 146.638 101.171 146.892 102.476 146.887H105.368L109.036 150.555C109.129 150.649 109.192 150.768 109.217 150.898C109.242 151.027 109.227 151.161 109.175 151.282C109.123 151.404 109.035 151.506 108.924 151.577C108.813 151.648 108.683 151.684 108.551 151.681" fill="#1D1D1B"/>
<path d="M108.512 151.681C108.337 151.68 108.17 151.611 108.046 151.487L104.786 148.207H102.438C100.956 148.212 99.488 147.923 98.1188 147.357C96.7496 146.79 95.5064 145.958 94.4612 144.908L77.6934 128.14C77.2174 127.678 76.849 127.116 76.6142 126.496C76.3794 125.876 76.2841 125.211 76.3349 124.549C76.4033 123.702 76.7674 122.905 77.3634 122.298C78.179 121.55 79.2453 121.135 80.3522 121.134L77.0141 117.796C76.5225 117.294 76.1847 116.662 76.0403 115.974C75.8959 115.286 75.9509 114.572 76.199 113.914C76.4502 113.195 76.8466 112.534 77.3634 111.974C77.8929 111.437 78.5673 111.066 79.3042 110.906L78.9354 110.537C78.1248 109.723 77.6697 108.62 77.6697 107.471C77.6697 106.322 78.1248 105.219 78.9354 104.405C79.2869 104.065 79.6703 103.759 80.0805 103.493C80.9138 102.974 81.8974 102.752 82.8727 102.861C83.8481 102.97 84.7582 103.404 85.4563 104.094L85.6503 104.288C85.8833 103.564 86.2744 102.902 86.7954 102.348C87.1577 101.969 87.593 101.668 88.075 101.462C88.5569 101.256 89.0756 101.15 89.5997 101.15C90.1238 101.15 90.6425 101.256 91.1245 101.462C91.6064 101.668 92.0417 101.969 92.4041 102.348L100.982 110.906C101.18 109.963 101.446 109.036 101.778 108.131C102.318 106.74 103.153 105.483 104.223 104.444L104.708 103.997L115.673 114.962C116.87 116.157 117.818 117.576 118.464 119.138C119.11 120.7 119.441 122.374 119.438 124.064V127.946C119.434 129.305 119.699 130.652 120.218 131.908C120.738 133.164 121.502 134.304 122.466 135.262L125.804 138.6C125.927 138.724 125.996 138.892 125.996 139.066C125.996 139.241 125.927 139.408 125.804 139.532C125.744 139.595 125.672 139.646 125.592 139.68C125.512 139.715 125.425 139.733 125.338 139.733C125.251 139.733 125.165 139.715 125.085 139.68C125.004 139.646 124.932 139.595 124.872 139.532L121.515 136.194C120.431 135.111 119.571 133.826 118.985 132.41C118.399 130.995 118.098 129.478 118.099 127.946V124.064C118.108 122.549 117.813 121.048 117.233 119.648C116.654 118.248 115.8 116.978 114.722 115.913L104.708 105.802C104.018 106.6 103.473 107.513 103.097 108.5C102.674 109.733 102.349 110.999 102.127 112.284L101.952 113.604L91.5696 103.202C91.0757 102.714 90.4098 102.441 89.7162 102.441C89.0225 102.441 88.3567 102.714 87.8628 103.202C87.2786 103.916 86.8967 104.774 86.7566 105.686L86.5625 107.005L84.6217 105.065C84.1439 104.584 83.5168 104.279 82.8432 104.202C82.1696 104.124 81.4896 104.278 80.915 104.638C80.581 104.845 80.2689 105.086 79.9834 105.356C79.4285 105.928 79.1182 106.694 79.1182 107.491C79.1182 108.288 79.4285 109.053 79.9834 109.625L82.9333 112.556L80.8179 112.206C80.3707 112.142 79.9146 112.176 79.482 112.307C79.0494 112.437 78.6508 112.662 78.3144 112.963C77.9243 113.367 77.6263 113.85 77.4411 114.38C77.286 114.803 77.2547 115.261 77.351 115.701C77.4472 116.141 77.667 116.545 77.9845 116.864L84.3306 123.191L81.8659 122.609C81.2517 122.436 80.6066 122.404 79.9783 122.515C79.3501 122.626 78.7548 122.877 78.2368 123.249C77.8531 123.632 77.6249 124.144 77.5963 124.685C77.5574 125.152 77.6245 125.621 77.7926 126.058C77.9606 126.495 78.2252 126.888 78.5667 127.208L95.451 143.976C96.3703 144.903 97.465 145.638 98.6711 146.138C99.8773 146.638 101.171 146.892 102.476 146.887H105.368L109.036 150.555C109.129 150.649 109.192 150.768 109.217 150.898C109.242 151.027 109.227 151.161 109.175 151.282C109.123 151.404 109.035 151.506 108.924 151.577C108.813 151.648 108.683 151.684 108.551 151.681H108.512Z" stroke="#1D1D1B" stroke-width="0.5" stroke-miterlimit="10"/>
<path d="M84.0396 141.88C81.098 141.959 78.2103 141.08 75.8109 139.377C74.7131 138.491 73.804 137.393 73.1374 136.15C72.4707 134.907 72.06 133.542 71.9295 132.138C71.0173 131.264 67.2329 127.247 67.427 122.434C67.5466 120.962 67.9811 119.534 68.701 118.245C69.4209 116.955 70.4094 115.836 71.5996 114.962C70.3348 113.56 69.4838 111.834 69.1412 109.977C68.7986 108.12 68.9778 106.205 69.6588 104.444C71.9101 99.3783 77.6934 100.058 79.5759 100.426C80.366 98.571 81.7082 97.0039 83.4199 95.9379C85.1317 94.8719 87.1302 94.3588 89.1437 94.4682C90.5797 94.4372 92.0031 94.7421 93.3004 95.3588C94.5977 95.9754 95.7329 96.8866 96.6155 98.0198C99.8895 96.8107 103.503 96.908 106.707 98.2915C109.987 99.9023 112.277 103.143 113.539 107.995C113.553 108.156 113.51 108.317 113.417 108.449C113.323 108.581 113.186 108.675 113.029 108.715C112.873 108.754 112.707 108.737 112.562 108.666C112.417 108.594 112.302 108.473 112.238 108.325C111.093 103.92 109.036 100.95 106.106 99.5335C103.068 98.3055 99.6724 98.3055 96.6349 99.5335L96.0915 99.7664L95.8004 99.2618C95.0672 98.197 94.0795 97.3321 92.9272 96.7458C91.7749 96.1595 90.4944 95.8703 89.202 95.9044C87.3678 95.7573 85.5368 96.2249 83.9977 97.2333C82.4586 98.2418 81.299 99.7339 80.7016 101.474L80.5075 102.115L79.9253 101.824C79.6536 101.824 73.2298 99.9799 70.9785 104.968C68.7273 109.955 72.9193 114.516 73.0551 114.555L73.5985 115.098L72.9969 115.564C71.8237 116.322 70.8372 117.335 70.1112 118.528C69.3853 119.721 68.9387 121.063 68.8049 122.454C68.5914 127.228 72.9969 131.303 73.0357 131.342L73.2104 131.517V131.769C73.3027 133.042 73.6551 134.283 74.246 135.415C74.8368 136.546 75.6535 137.545 76.6455 138.348C79.2888 140.078 82.4524 140.833 85.5922 140.483C85.7548 140.479 85.9132 140.535 86.037 140.64C86.1607 140.746 86.2412 140.893 86.2628 141.055C86.2845 141.216 86.2458 141.379 86.1543 141.514C86.0628 141.648 85.9248 141.744 85.7669 141.783C85.2007 141.857 84.6299 141.89 84.059 141.88" fill="#1D1D1B"/>
<path d="M84.0396 141.88C81.098 141.959 78.2103 141.08 75.8109 139.377C74.7131 138.491 73.804 137.393 73.1374 136.15C72.4707 134.907 72.06 133.542 71.9295 132.138C71.0173 131.264 67.2329 127.247 67.427 122.434C67.5466 120.962 67.9811 119.534 68.701 118.245C69.4209 116.955 70.4094 115.836 71.5996 114.962C70.3348 113.56 69.4838 111.834 69.1412 109.977C68.7986 108.12 68.9778 106.205 69.6588 104.444C71.9101 99.3783 77.6934 100.058 79.5759 100.426C80.366 98.571 81.7082 97.0039 83.4199 95.9379C85.1317 94.8719 87.1302 94.3588 89.1437 94.4682C90.5797 94.4372 92.0031 94.7421 93.3004 95.3588C94.5977 95.9754 95.7329 96.8866 96.6155 98.0198C99.8895 96.8107 103.503 96.908 106.707 98.2915C109.987 99.9023 112.277 103.143 113.539 107.995C113.553 108.156 113.51 108.317 113.417 108.449C113.323 108.581 113.186 108.675 113.029 108.715C112.873 108.754 112.707 108.737 112.562 108.666C112.417 108.594 112.302 108.473 112.238 108.325C111.093 103.92 109.036 100.95 106.106 99.5335C103.068 98.3055 99.6724 98.3055 96.6349 99.5335L96.0915 99.7664L95.8004 99.2618C95.0672 98.197 94.0795 97.3321 92.9272 96.7458C91.7749 96.1595 90.4944 95.8703 89.2019 95.9044V95.9044C87.3678 95.7573 85.5368 96.2249 83.9977 97.2333C82.4586 98.2418 81.299 99.7339 80.7016 101.474L80.5075 102.115L79.9253 101.824C79.6536 101.824 73.2298 99.9799 70.9785 104.968C68.7273 109.955 72.9193 114.516 73.0551 114.555L73.5985 115.098L72.9969 115.564C71.8237 116.322 70.8372 117.335 70.1112 118.528C69.3853 119.721 68.9387 121.063 68.8049 122.454C68.5914 127.228 72.9969 131.303 73.0357 131.342L73.2104 131.517V131.769C73.3027 133.042 73.6551 134.283 74.246 135.415C74.8368 136.546 75.6535 137.545 76.6455 138.348C79.2888 140.078 82.4524 140.833 85.5922 140.483C85.7548 140.479 85.9132 140.535 86.037 140.64C86.1607 140.746 86.2412 140.893 86.2628 141.055C86.2845 141.216 86.2458 141.379 86.1543 141.514C86.0628 141.648 85.9248 141.744 85.7669 141.783C85.1943 141.858 84.617 141.891 84.0396 141.88V141.88Z" stroke="#1D1D1B" stroke-width="0.5" stroke-miterlimit="10"/>
<path d="M77.8487 97.3985C77.7167 97.4021 77.5868 97.366 77.4755 97.295C77.3643 97.224 77.2769 97.1212 77.2247 97C77.1724 96.8788 77.1577 96.7448 77.1825 96.6151C77.2072 96.4855 77.2703 96.3663 77.3635 96.2728L82.6811 90.9552C82.8047 90.832 82.9722 90.7628 83.1468 90.7628C83.3215 90.7628 83.4889 90.832 83.6126 90.9552C83.6766 91.0168 83.7275 91.0907 83.7623 91.1724C83.797 91.2541 83.815 91.3419 83.815 91.4307C83.815 91.5195 83.797 91.6074 83.7623 91.6891C83.7275 91.7708 83.6766 91.8446 83.6126 91.9062L78.3144 97.2044C78.191 97.3282 78.0235 97.398 77.8487 97.3985Z" fill="#1D1D1B"/>
<path d="M77.8487 97.3985C77.7167 97.4021 77.5868 97.366 77.4755 97.295C77.3643 97.224 77.2769 97.1212 77.2247 97C77.1724 96.8788 77.1577 96.7448 77.1825 96.6151C77.2072 96.4855 77.2703 96.3663 77.3635 96.2728L82.6811 90.9552C82.8047 90.832 82.9722 90.7628 83.1468 90.7628C83.3215 90.7628 83.4889 90.832 83.6126 90.9552C83.6766 91.0168 83.7275 91.0907 83.7623 91.1724C83.797 91.2541 83.815 91.3419 83.815 91.4307C83.815 91.5195 83.797 91.6074 83.7623 91.6891C83.7275 91.7708 83.6766 91.8446 83.6126 91.9062L78.3144 97.2044C78.191 97.3282 78.0235 97.398 77.8487 97.3985V97.3985Z" stroke="#1D1D1B" stroke-width="0.5" stroke-miterlimit="10"/>
<path d="M67.2136 85.4634C66.614 85.4673 66.0267 85.293 65.5263 84.9626C65.0259 84.6323 64.6348 84.1608 64.4027 83.608C64.1706 83.0551 64.1078 82.4458 64.2225 81.8572C64.3371 81.2687 64.6239 80.7274 65.0465 80.3021C65.4691 79.8767 66.0085 79.5864 66.5963 79.468C67.1842 79.3496 67.7939 79.4084 68.3482 79.637C68.9026 79.8656 69.3766 80.2536 69.7101 80.7519C70.0436 81.2502 70.2217 81.8363 70.2217 82.4359C70.2217 82.8335 70.1434 83.2272 69.9912 83.5945C69.8391 83.9618 69.6161 84.2955 69.335 84.5767C69.0538 84.8578 68.7201 85.0808 68.3528 85.233C67.9854 85.3851 67.5917 85.4634 67.1942 85.4634H67.2136ZM67.1942 80.728C66.8564 80.728 66.5262 80.8282 66.2453 81.0159C65.9645 81.2035 65.7456 81.4703 65.6163 81.7823C65.4871 82.0944 65.4532 82.4378 65.5191 82.7691C65.585 83.1004 65.7477 83.4047 65.9865 83.6435C66.2254 83.8824 66.5297 84.045 66.861 84.1109C67.1923 84.1768 67.5357 84.143 67.8477 84.0137C68.1598 83.8845 68.4265 83.6656 68.6142 83.3847C68.8018 83.1039 68.902 82.7737 68.902 82.4359C68.902 81.9829 68.7221 81.5485 68.4018 81.2283C68.0815 80.908 67.6471 80.728 67.1942 80.728Z" fill="#1D1D1B"/>
<path d="M67.2136 85.4634C66.614 85.4673 66.0267 85.293 65.5263 84.9626C65.0259 84.6323 64.6348 84.1608 64.4027 83.608C64.1706 83.0551 64.1078 82.4458 64.2225 81.8572C64.3371 81.2687 64.6239 80.7274 65.0465 80.3021C65.4691 79.8767 66.0085 79.5864 66.5963 79.468C67.1842 79.3496 67.7939 79.4084 68.3482 79.637C68.9026 79.8656 69.3766 80.2536 69.7101 80.7519C70.0436 81.2502 70.2217 81.8363 70.2217 82.4359C70.2217 83.2355 69.9054 84.0026 69.3418 84.5698C68.7782 85.1371 68.0132 85.4583 67.2136 85.4634ZM67.2136 80.728C66.8758 80.728 66.5456 80.8282 66.2647 81.0159C65.9839 81.2035 65.765 81.4703 65.6357 81.7823C65.5065 82.0944 65.4727 82.4378 65.5386 82.7691C65.6044 83.1004 65.7671 83.4047 66.0059 83.6435C66.2448 83.8824 66.5491 84.045 66.8804 84.1109C67.2117 84.1768 67.5551 84.143 67.8671 84.0137C68.1792 83.8845 68.4459 83.6656 68.6336 83.3847C68.8212 83.1039 68.9214 82.7737 68.9214 82.4359C68.9214 81.9829 68.7415 81.5485 68.4212 81.2283C68.1009 80.908 67.6665 80.728 67.2136 80.728Z" stroke="#1D1D1B" stroke-width="0.5" stroke-miterlimit="10"/>
<path d="M102.476 95.7875C101.466 95.7913 100.477 95.4953 99.6355 94.9368C98.7936 94.3782 98.1363 93.5824 97.747 92.6501C97.3577 91.7178 97.2539 90.6909 97.4486 89.6996C97.6434 88.7082 98.128 87.7969 98.841 87.0812C99.554 86.3654 100.463 85.8773 101.454 85.6788C102.445 85.4803 103.472 85.5802 104.406 85.966C105.34 86.3517 106.138 87.0059 106.7 87.8457C107.261 88.6855 107.561 89.6731 107.561 90.6834C107.561 92.0337 107.026 93.329 106.073 94.2857C105.12 95.2423 103.827 95.7824 102.476 95.7875ZM102.476 86.9378C101.73 86.9339 101 87.152 100.377 87.5642C99.7553 87.9764 99.2697 88.5642 98.9824 89.253C98.695 89.9418 98.6188 90.7004 98.7635 91.4325C98.9081 92.1647 99.2671 92.8373 99.7948 93.365C100.323 93.8927 100.995 94.2517 101.727 94.3963C102.459 94.541 103.218 94.4648 103.907 94.1774C104.596 93.8901 105.183 93.4045 105.596 92.7824C106.008 92.1603 106.226 91.4297 106.222 90.6834C106.207 89.6983 105.806 88.7585 105.106 88.0655C104.406 87.3725 103.462 86.9816 102.476 86.9766" fill="#1D1D1B"/>
<path d="M102.476 95.7875C101.466 95.7913 100.477 95.4953 99.6355 94.9368C98.7936 94.3782 98.1363 93.5824 97.747 92.6501C97.3577 91.7178 97.2539 90.6909 97.4486 89.6996C97.6434 88.7082 98.128 87.7969 98.841 87.0812C99.554 86.3654 100.463 85.8773 101.454 85.6788C102.445 85.4803 103.472 85.5802 104.406 85.966C105.34 86.3517 106.138 87.0059 106.7 87.8457C107.261 88.6855 107.561 89.6731 107.561 90.6834C107.561 92.0337 107.026 93.329 106.073 94.2857C105.12 95.2423 103.827 95.7824 102.476 95.7875V95.7875ZM102.476 86.9378C101.73 86.9339 101 87.152 100.377 87.5642C99.7553 87.9764 99.2697 88.5642 98.9824 89.253C98.695 89.9418 98.6188 90.7004 98.7635 91.4325C98.9081 92.1647 99.2671 92.8373 99.7948 93.365C100.323 93.8927 100.995 94.2517 101.727 94.3964C102.459 94.541 103.218 94.4648 103.907 94.1774C104.596 93.8901 105.183 93.4045 105.596 92.7824C106.008 92.1603 106.226 91.4297 106.222 90.6834C106.207 89.6983 105.806 88.7585 105.106 88.0655C104.406 87.3725 103.462 86.9816 102.476 86.9766V86.9378Z" stroke="#1D1D1B" stroke-width="0.5" stroke-miterlimit="10"/>
<path d="M68.5719 143.704C67.8832 143.708 67.2088 143.507 66.6346 143.127C66.0604 142.747 65.6121 142.204 65.3468 141.569C65.0814 140.933 65.011 140.233 65.1444 139.557C65.2778 138.882 65.6091 138.261 66.0961 137.774C66.5831 137.287 67.2039 136.956 67.8795 136.822C68.5552 136.689 69.2553 136.759 69.8909 137.025C70.5264 137.29 71.0688 137.738 71.449 138.312C71.8292 138.887 72.0302 139.561 72.0264 140.25C72.0213 141.164 71.6557 142.04 71.0089 142.687C70.3622 143.334 69.4865 143.699 68.5719 143.704ZM68.5719 138.115C68.1496 138.115 67.7369 138.24 67.3858 138.475C67.0348 138.709 66.7611 139.043 66.5996 139.433C66.438 139.823 66.3957 140.252 66.4781 140.666C66.5605 141.08 66.7638 141.461 67.0623 141.759C67.3609 142.058 67.7413 142.261 68.1554 142.344C68.5695 142.426 68.9987 142.384 69.3888 142.222C69.7789 142.06 70.1123 141.787 70.3469 141.436C70.5815 141.085 70.7067 140.672 70.7067 140.25C70.7067 139.684 70.4818 139.141 70.0814 138.74C69.681 138.34 69.1381 138.115 68.5719 138.115Z" fill="#1D1D1B"/>
<path d="M68.5719 143.704C67.8832 143.708 67.2088 143.507 66.6346 143.127C66.0604 142.747 65.6121 142.204 65.3468 141.569C65.0814 140.933 65.011 140.233 65.1444 139.557C65.2778 138.882 65.6091 138.261 66.0961 137.774C66.5831 137.287 67.2039 136.956 67.8795 136.822C68.5552 136.689 69.2553 136.759 69.8909 137.025C70.5264 137.29 71.0688 137.738 71.449 138.312C71.8292 138.887 72.0302 139.561 72.0264 140.25C72.0213 141.164 71.6557 142.04 71.0089 142.687C70.3622 143.334 69.4865 143.699 68.5719 143.704V143.704ZM68.5719 138.115C68.1496 138.115 67.7369 138.24 67.3858 138.475C67.0348 138.709 66.7611 139.043 66.5996 139.433C66.438 139.823 66.3957 140.252 66.4781 140.666C66.5605 141.08 66.7638 141.461 67.0623 141.759C67.3609 142.058 67.7413 142.261 68.1554 142.344C68.5695 142.426 68.9987 142.384 69.3888 142.222C69.7789 142.06 70.1123 141.787 70.3469 141.436C70.5815 141.085 70.7067 140.672 70.7067 140.25C70.7067 139.684 70.4818 139.141 70.0814 138.74C69.681 138.34 69.1381 138.115 68.5719 138.115Z" stroke="#1D1D1B" stroke-width="0.5" stroke-miterlimit="10"/>
<path d="M90.4633 130.973C90.2885 130.973 90.1209 130.903 89.9975 130.779L81.6524 122.434C81.5884 122.372 81.5375 122.298 81.5028 122.217C81.468 122.135 81.4501 122.047 81.4501 121.958C81.4501 121.87 81.468 121.782 81.5028 121.7C81.5375 121.618 81.5884 121.544 81.6524 121.483C81.7761 121.36 81.9436 121.29 82.1182 121.29C82.2928 121.29 82.4603 121.36 82.584 121.483L90.9291 129.847C90.9925 129.907 91.0431 129.979 91.0776 130.06C91.1121 130.14 91.13 130.226 91.13 130.313C91.13 130.4 91.1121 130.487 91.0776 130.567C91.0431 130.647 90.9925 130.719 90.9291 130.779C90.8701 130.843 90.7979 130.894 90.7175 130.927C90.6371 130.961 90.5504 130.976 90.4633 130.973Z" fill="#1D1D1B"/>
<path d="M90.4633 130.973C90.2885 130.973 90.1209 130.903 89.9975 130.779L81.6524 122.434C81.5884 122.372 81.5375 122.298 81.5028 122.217C81.468 122.135 81.4501 122.047 81.4501 121.958C81.4501 121.87 81.468 121.782 81.5028 121.7C81.5375 121.618 81.5884 121.544 81.6524 121.483C81.7761 121.36 81.9436 121.29 82.1182 121.29C82.2928 121.29 82.4603 121.36 82.584 121.483L90.9291 129.847C90.9925 129.907 91.0431 129.979 91.0776 130.06C91.1121 130.14 91.13 130.226 91.13 130.313C91.13 130.4 91.1121 130.487 91.0776 130.567C91.0431 130.647 90.9925 130.719 90.9291 130.779C90.8701 130.843 90.7979 130.894 90.7175 130.927C90.6371 130.961 90.5504 130.976 90.4633 130.973V130.973Z" stroke="#1D1D1B" stroke-width="0.5" stroke-miterlimit="10"/>
<path d="M95.024 126.238C94.937 126.242 94.8502 126.226 94.7698 126.192C94.6894 126.159 94.6172 126.108 94.5583 126.044L80.4686 111.954C80.3453 111.831 80.2761 111.663 80.2761 111.489C80.2761 111.314 80.3453 111.147 80.4686 111.023C80.5284 110.959 80.6006 110.909 80.6807 110.874C80.7608 110.84 80.8471 110.822 80.9344 110.822C81.0216 110.822 81.1079 110.84 81.188 110.874C81.2681 110.909 81.3403 110.959 81.4001 111.023L95.451 125.113C95.5144 125.172 95.565 125.245 95.5995 125.325C95.634 125.405 95.6519 125.491 95.6519 125.578C95.6519 125.666 95.634 125.752 95.5995 125.832C95.565 125.912 95.5144 125.984 95.451 126.044C95.392 126.108 95.3199 126.159 95.2394 126.192C95.159 126.226 95.0723 126.242 94.9852 126.238" fill="#1D1D1B"/>
<path d="M95.024 126.238C94.937 126.242 94.8502 126.226 94.7698 126.192C94.6894 126.159 94.6172 126.108 94.5583 126.044L80.4686 111.954C80.3453 111.831 80.2761 111.663 80.2761 111.489C80.2761 111.314 80.3453 111.147 80.4686 111.023C80.5284 110.959 80.6006 110.909 80.6807 110.874C80.7608 110.84 80.8471 110.822 80.9344 110.822C81.0216 110.822 81.1079 110.84 81.188 110.874C81.2681 110.909 81.3403 110.959 81.4001 111.023L95.451 125.113C95.5144 125.172 95.565 125.245 95.5995 125.325C95.634 125.405 95.6519 125.491 95.6519 125.578C95.6519 125.666 95.634 125.752 95.5995 125.832C95.565 125.912 95.5144 125.984 95.451 126.044C95.3964 126.103 95.3305 126.151 95.2572 126.184C95.1839 126.218 95.1046 126.236 95.024 126.238V126.238Z" stroke="#1D1D1B" stroke-width="0.5" stroke-miterlimit="10"/>
<path d="M100.264 120.415C100.177 120.419 100.09 120.403 100.01 120.37C99.9294 120.336 99.8572 120.286 99.7982 120.221L85.6115 106.035C85.4883 105.911 85.4191 105.743 85.4191 105.569C85.4191 105.394 85.4883 105.227 85.6115 105.103C85.6714 105.04 85.7436 104.989 85.8237 104.955C85.9038 104.92 85.9901 104.902 86.0773 104.902C86.1645 104.902 86.2508 104.92 86.3309 104.955C86.411 104.989 86.4832 105.04 86.5431 105.103L100.73 119.27C100.85 119.4 100.917 119.569 100.917 119.746C100.917 119.922 100.85 120.092 100.73 120.221C100.669 120.284 100.597 120.333 100.517 120.366C100.437 120.4 100.351 120.416 100.264 120.415Z" fill="#1D1D1B"/>
<path d="M100.264 120.415C100.177 120.419 100.09 120.403 100.01 120.37C99.9294 120.336 99.8572 120.286 99.7982 120.221L85.6115 106.035C85.4883 105.911 85.4191 105.743 85.4191 105.569C85.4191 105.394 85.4883 105.227 85.6115 105.103C85.6714 105.04 85.7436 104.989 85.8237 104.955C85.9038 104.92 85.9901 104.902 86.0773 104.902C86.1645 104.902 86.2508 104.92 86.3309 104.955C86.411 104.989 86.4832 105.04 86.5431 105.103L100.73 119.27C100.85 119.4 100.917 119.569 100.917 119.746C100.917 119.922 100.85 120.092 100.73 120.221C100.669 120.284 100.597 120.333 100.517 120.366C100.437 120.4 100.351 120.416 100.264 120.415V120.415Z" stroke="#1D1D1B" stroke-width="0.5" stroke-miterlimit="10"/>
<path d="M109.036 120.376C108.949 120.377 108.863 120.361 108.783 120.327C108.703 120.294 108.631 120.245 108.57 120.182L101.04 112.652C100.917 112.529 100.848 112.361 100.848 112.187C100.848 112.012 100.917 111.845 101.04 111.721C101.102 111.657 101.176 111.606 101.257 111.571C101.339 111.536 101.427 111.519 101.516 111.519C101.605 111.519 101.693 111.536 101.774 111.571C101.856 111.606 101.93 111.657 101.991 111.721L109.502 119.231C109.566 119.293 109.617 119.367 109.652 119.449C109.686 119.53 109.704 119.618 109.704 119.707C109.704 119.796 109.686 119.884 109.652 119.965C109.617 120.047 109.566 120.121 109.502 120.182C109.443 120.247 109.371 120.297 109.29 120.331C109.21 120.364 109.123 120.38 109.036 120.376Z" fill="#1D1D1B"/>
<path d="M109.036 120.376C108.949 120.377 108.863 120.361 108.783 120.327C108.703 120.294 108.631 120.245 108.57 120.182L101.04 112.652C100.917 112.529 100.848 112.361 100.848 112.187C100.848 112.012 100.917 111.845 101.04 111.721C101.102 111.657 101.176 111.606 101.257 111.571C101.339 111.536 101.427 111.519 101.516 111.519C101.605 111.519 101.693 111.536 101.774 111.571C101.856 111.606 101.93 111.657 101.991 111.721L109.502 119.231C109.566 119.293 109.617 119.367 109.652 119.449C109.686 119.53 109.704 119.618 109.704 119.707C109.704 119.796 109.686 119.884 109.652 119.965C109.617 120.047 109.566 120.121 109.502 120.182C109.443 120.247 109.371 120.297 109.29 120.331C109.21 120.364 109.123 120.38 109.036 120.376V120.376Z" stroke="#1D1D1B" stroke-width="0.5" stroke-miterlimit="10"/>
<path d="M89.9005 51.6366H77.7321C76.2994 51.6315 74.9272 51.0587 73.916 50.0438C72.9047 49.029 72.3369 47.6547 72.3369 46.222V31.8606H95.2957V46.222C95.2906 47.6513 94.7205 49.0206 93.7098 50.0313C92.6991 51.042 91.3298 51.6121 89.9005 51.6172V51.6366ZM73.6566 33.2191V46.222C73.6617 47.2995 74.0934 48.3311 74.8571 49.0913C75.6209 49.8514 76.6546 50.2781 77.7321 50.2781H89.9005C90.9747 50.273 92.0034 49.844 92.763 49.0844C93.5225 48.3249 93.9515 47.2961 93.9566 46.222V33.2191H73.6566Z" fill="#1D1D1B"/>
<path d="M89.9005 51.6366H77.7321C76.2994 51.6315 74.9272 51.0587 73.916 50.0438C72.9047 49.029 72.3369 47.6547 72.3369 46.222V31.8606H95.2957V46.222C95.2957 47.6547 94.7279 49.029 93.7167 50.0438C92.7054 51.0587 91.3332 51.6315 89.9005 51.6366V51.6366ZM73.6566 33.2191V46.222C73.6617 47.2995 74.0934 48.3311 74.8571 49.0913C75.6209 49.8514 76.6546 50.2781 77.7321 50.2781H89.9005C90.9747 50.273 92.0034 49.844 92.763 49.0844C93.5225 48.3249 93.9515 47.2961 93.9566 46.222V33.2191H73.6566Z" stroke="#1D1D1B" stroke-width="0.5" stroke-miterlimit="10"/>
<path d="M76.6065 60.1946C76.4297 60.1895 76.2619 60.1157 76.1387 59.9889C76.0155 59.862 75.9466 59.6922 75.9467 59.5153V53.6931C75.9467 53.5181 76.0162 53.3503 76.1399 53.2266C76.2637 53.1028 76.4315 53.0333 76.6065 53.0333C76.7815 53.0333 76.9493 53.1028 77.0731 53.2266C77.1968 53.3503 77.2663 53.5181 77.2663 53.6931V59.5153C77.2664 59.6922 77.1975 59.862 77.0743 59.9889C76.9511 60.1157 76.7833 60.1895 76.6065 60.1946Z" fill="#1D1D1B"/>
<path d="M76.6065 60.1946C76.4297 60.1895 76.2619 60.1157 76.1387 59.9889C76.0155 59.862 75.9466 59.6922 75.9467 59.5153V53.6931C75.9467 53.5181 76.0162 53.3503 76.1399 53.2266C76.2637 53.1028 76.4315 53.0333 76.6065 53.0333C76.7815 53.0333 76.9493 53.1028 77.0731 53.2266C77.1968 53.3503 77.2663 53.5181 77.2663 53.6931V59.5153C77.2664 59.6922 77.1975 59.862 77.0743 59.9889C76.9511 60.1157 76.7833 60.1895 76.6065 60.1946Z" stroke="#1D1D1B" stroke-width="0.5" stroke-miterlimit="10"/>
<path d="M76.6065 71.4509C76.5199 71.4509 76.434 71.4338 76.354 71.4007C76.2739 71.3675 76.2012 71.3189 76.1399 71.2576C76.0786 71.1964 76.03 71.1236 75.9969 71.0436C75.9637 70.9635 75.9467 70.8777 75.9467 70.791V64.9689C75.9467 64.7939 76.0162 64.626 76.1399 64.5023C76.2637 64.3785 76.4315 64.309 76.6065 64.309C76.7815 64.309 76.9493 64.3785 77.0731 64.5023C77.1968 64.626 77.2663 64.7939 77.2663 64.9689V70.791C77.2663 70.8777 77.2493 70.9635 77.2161 71.0436C77.183 71.1236 77.1344 71.1964 77.0731 71.2576C77.0118 71.3189 76.9391 71.3675 76.859 71.4007C76.779 71.4338 76.6932 71.4509 76.6065 71.4509Z" fill="#1D1D1B"/>
<path d="M76.6065 71.4509C76.5199 71.4509 76.434 71.4338 76.354 71.4007C76.2739 71.3675 76.2012 71.3189 76.1399 71.2576C76.0786 71.1964 76.03 71.1236 75.9969 71.0436C75.9637 70.9635 75.9467 70.8777 75.9467 70.791V64.9689C75.9467 64.7939 76.0162 64.626 76.1399 64.5023C76.2637 64.3785 76.4315 64.309 76.6065 64.309C76.7815 64.309 76.9493 64.3785 77.0731 64.5023C77.1968 64.626 77.2663 64.7939 77.2663 64.9689V70.791C77.2663 70.8777 77.2493 70.9635 77.2161 71.0436C77.183 71.1236 77.1344 71.1964 77.0731 71.2576C77.0118 71.3189 76.9391 71.3675 76.859 71.4007C76.779 71.4338 76.6932 71.4509 76.6065 71.4509V71.4509Z" stroke="#1D1D1B" stroke-width="0.5" stroke-miterlimit="10"/>
<path d="M90.5798 60.1946C90.403 60.1895 90.2352 60.1157 90.112 59.9889C89.9887 59.862 89.9198 59.6922 89.9199 59.5153V53.6931C89.9199 53.5181 89.9894 53.3503 90.1132 53.2266C90.2369 53.1028 90.4048 53.0333 90.5798 53.0333C90.7566 53.0332 90.9265 53.1021 91.0533 53.2253C91.1802 53.3485 91.254 53.5164 91.259 53.6931V59.5153C91.259 59.6955 91.1875 59.8682 91.0601 59.9956C90.9327 60.123 90.7599 60.1946 90.5798 60.1946Z" fill="#1D1D1B"/>
<path d="M90.5798 60.1946C90.403 60.1895 90.2352 60.1157 90.112 59.9889C89.9887 59.862 89.9198 59.6922 89.9199 59.5153V53.6931C89.9199 53.5181 89.9894 53.3503 90.1132 53.2266C90.2369 53.1028 90.4048 53.0333 90.5798 53.0333C90.7566 53.0332 90.9265 53.1021 91.0533 53.2253C91.1802 53.3485 91.254 53.5164 91.259 53.6931V59.5153C91.259 59.6955 91.1875 59.8682 91.0601 59.9956C90.9327 60.123 90.7599 60.1946 90.5798 60.1946V60.1946Z" stroke="#1D1D1B" stroke-width="0.5" stroke-miterlimit="10"/>
<path d="M83.1468 66.0945C82.97 66.0894 82.8022 66.0156 82.679 65.8888C82.5558 65.7619 82.4869 65.592 82.4869 65.4152V59.593C82.4869 59.418 82.5565 59.2502 82.6802 59.1264C82.8039 59.0027 82.9718 58.9332 83.1468 58.9332C83.3218 58.9332 83.4896 59.0027 83.6134 59.1264C83.7371 59.2502 83.8066 59.418 83.8066 59.593V65.4152C83.8067 65.592 83.7378 65.7619 83.6146 65.8888C83.4914 66.0156 83.3236 66.0894 83.1468 66.0945Z" fill="#1D1D1B"/>
<path d="M83.1468 66.0945C82.97 66.0894 82.8022 66.0156 82.679 65.8888C82.5558 65.7619 82.4869 65.592 82.4869 65.4152V59.593C82.4869 59.418 82.5565 59.2502 82.6802 59.1264C82.8039 59.0027 82.9718 58.9332 83.1468 58.9332C83.3218 58.9332 83.4896 59.0027 83.6134 59.1264C83.7371 59.2502 83.8066 59.418 83.8066 59.593V65.4152C83.8067 65.592 83.7378 65.7619 83.6146 65.8888C83.4914 66.0156 83.3236 66.0894 83.1468 66.0945V66.0945Z" stroke="#1D1D1B" stroke-width="0.5" stroke-miterlimit="10"/>
<path d="M83.1468 79.0778C82.97 79.0727 82.8022 78.9989 82.679 78.8721C82.5558 78.7453 82.4869 78.5754 82.4869 78.3985V72.5764C82.4869 72.4013 82.5565 72.2335 82.6802 72.1098C82.8039 71.986 82.9718 71.9165 83.1468 71.9165C83.3218 71.9165 83.4896 71.986 83.6134 72.1098C83.7371 72.2335 83.8066 72.4013 83.8066 72.5764V78.3985C83.8067 78.5754 83.7378 78.7453 83.6146 78.8721C83.4914 78.9989 83.3236 79.0727 83.1468 79.0778Z" fill="#1D1D1B"/>
<path d="M83.1468 79.0778C82.97 79.0727 82.8022 78.9989 82.679 78.8721C82.5558 78.7453 82.4869 78.5754 82.4869 78.3985V72.5764C82.4869 72.4013 82.5565 72.2335 82.6802 72.1098C82.8039 71.986 82.9718 71.9165 83.1468 71.9165C83.3218 71.9165 83.4896 71.986 83.6134 72.1098C83.7371 72.2335 83.8066 72.4013 83.8066 72.5764V78.3985C83.8067 78.5754 83.7378 78.7453 83.6146 78.8721C83.4914 78.9989 83.3236 79.0727 83.1468 79.0778Z" stroke="#1D1D1B" stroke-width="0.5" stroke-miterlimit="10"/>
<path d="M90.5798 71.4509C90.4931 71.4509 90.4073 71.4338 90.3273 71.4007C90.2472 71.3675 90.1745 71.3189 90.1132 71.2576C90.0519 71.1964 90.0033 71.1236 89.9701 71.0436C89.937 70.9635 89.9199 70.8777 89.9199 70.791V64.9689C89.9199 64.8822 89.937 64.7964 89.9701 64.7164C90.0033 64.6363 90.0519 64.5636 90.1132 64.5023C90.1745 64.441 90.2472 64.3924 90.3273 64.3593C90.4073 64.3261 90.4931 64.309 90.5798 64.309C90.7566 64.3089 90.9265 64.3778 91.0533 64.5011C91.1802 64.6243 91.254 64.7921 91.259 64.9689V70.791C91.254 70.9678 91.1802 71.1356 91.0533 71.2589C90.9265 71.3821 90.7566 71.451 90.5798 71.4509Z" fill="#1D1D1B"/>
<path d="M90.5798 71.4509C90.4931 71.4509 90.4073 71.4338 90.3273 71.4007C90.2472 71.3675 90.1745 71.3189 90.1132 71.2576C90.0519 71.1964 90.0033 71.1236 89.9701 71.0436C89.937 70.9635 89.9199 70.8777 89.9199 70.791V64.9689C89.9199 64.8822 89.937 64.7964 89.9701 64.7164C90.0033 64.6363 90.0519 64.5636 90.1132 64.5023C90.1745 64.441 90.2472 64.3924 90.3273 64.3593C90.4073 64.3261 90.4931 64.309 90.5798 64.309C90.7566 64.3089 90.9265 64.3778 91.0533 64.5011C91.1802 64.6243 91.254 64.7921 91.259 64.9689V70.791C91.254 70.9678 91.1802 71.1356 91.0533 71.2589C90.9265 71.3821 90.7566 71.451 90.5798 71.4509Z" stroke="#1D1D1B" stroke-width="0.5" stroke-miterlimit="10"/>
<g style="mix-blend-mode:overlay" opacity="0.36">
<g style="mix-blend-mode:overlay" opacity="0.36">
<g style="mix-blend-mode:overlay" opacity="0.36">
<g style="mix-blend-mode:overlay" opacity="0.36">
<path d="M148.452 53.9847C148.452 60.8938 146.403 67.6478 142.565 73.3925C138.726 79.1372 133.271 83.6147 126.887 86.2587C120.504 88.9027 113.48 89.5945 106.704 88.2466C99.9277 86.8987 93.7032 83.5716 88.8177 78.6861C83.9323 73.8007 80.6052 67.5762 79.2573 60.7998C77.9094 54.0235 78.6012 46.9996 81.2452 40.6164C83.8892 34.2332 88.3667 28.7774 94.1114 24.9389C99.8561 21.1004 106.61 19.0516 113.519 19.0516C122.784 19.0516 131.669 22.7321 138.221 29.2833C144.772 35.8345 148.452 44.7199 148.452 53.9847Z" fill="white"/>
</g>
</g>
</g>
</g>
<g style="mix-blend-mode:multiply" opacity="0.7">
<g style="mix-blend-mode:multiply" opacity="0.7">
<g style="mix-blend-mode:multiply" opacity="0.7">
<g style="mix-blend-mode:multiply" opacity="0.7">
<path d="M72.337 176.347C41.6347 171.709 5.45953 134.622 0.976455 110.033C-3.02144 88.0829 4.85791 53.4215 32.0281 30.8315C90.7933 -17.8226 151.849 33.6649 164.91 81.3098C177.524 127.227 173.468 191.659 72.337 176.405" fill="#639999"/>
</g>
</g>
</g>
</g>
<g style="mix-blend-mode:overlay" opacity="0.35" clip-path="url(#clip0)">
<path d="M58.5316 121.684C39.5124 118.967 21.2696 94.5135 17.7763 75.6885C14.6711 58.9982 20.6874 32.4103 41.4532 15.1378C86.284 -21.9301 141.983 15.9141 142.953 53.7583C143.729 87.1388 132.279 132.94 58.5316 121.684Z" fill="#65BB90"/>
</g>
<g style="mix-blend-mode:overlay" opacity="0.35">
<g style="mix-blend-mode:overlay" opacity="0.35">
<g style="mix-blend-mode:overlay" opacity="0.35">
<g style="mix-blend-mode:overlay" opacity="0.35">
<path d="M58.7713 151.425C39.9074 148.552 21.4705 124.099 18.016 105.313C14.9691 88.5645 20.9271 62.1124 41.7511 44.8593C86.6013 7.69438 142.203 45.6938 143.193 83.3827C144.066 116.86 132.519 162.603 58.7519 151.425" fill="#65BB90"/>
</g>
</g>
</g>
</g>
<defs>
<clipPath id="clip0">
<rect width="125.953" height="123.43" fill="white" transform="translate(17)"/>
</clipPath>
</defs>
</svg>
