<svg width="170" height="174" viewBox="0 0 170 174" fill="none" xmlns="http://www.w3.org/2000/svg">
<path d="M115.742 11.0151C90.962 1.48426 34.3872 -13.441 16.5074 24.8729C-1.37244 63.1867 19.5763 137.298 48.3593 153.272C77.1424 169.246 158.917 160.897 168.562 123.116C177.788 87.1853 140.56 20.4506 115.742 11.0151Z" fill="#F8F0EF"/>
<g style="mix-blend-mode:overlay" opacity="0.35">
<g style="mix-blend-mode:overlay" opacity="0.35">
<g style="mix-blend-mode:overlay" opacity="0.35">
<g style="mix-blend-mode:overlay" opacity="0.35">
<path d="M98.8155 81.0092C98.8155 81.0092 52.5911 57.3157 31.0133 79.0078C9.4356 100.7 2.28749 143.417 18.0133 161.411C33.7392 179.405 90.6 174.545 107.107 153.405C116.772 141.015 127.522 120.562 98.8155 80.9711" fill="#F8F0EF"/>
</g>
</g>
</g>
</g>
<path d="M68.2978 101.196C63.0174 101.14 57.8492 99.6652 53.335 96.9252C48.8208 94.1851 45.127 90.281 42.6409 85.6222L43.8417 85.0122C46.2155 89.4486 49.7377 93.1656 54.04 95.7745C58.3423 98.3834 63.2666 99.7883 68.2978 99.8422C73.2851 99.7942 78.1651 98.3883 82.4135 95.7754C86.6619 93.1626 90.1181 89.4416 92.4108 85.0122L93.6116 85.6222C91.2083 90.2754 87.5809 94.1846 83.1203 96.9289C78.6596 99.6731 73.5348 101.148 68.2978 101.196Z" fill="#1D1D1B"/>
<path d="M68.2978 101.196C63.0174 101.14 57.8492 99.6652 53.335 96.9252C48.8208 94.1851 45.127 90.281 42.6409 85.6222L43.8417 85.0122C46.2155 89.4486 49.7377 93.1656 54.04 95.7745C58.3423 98.3834 63.2666 99.7883 68.2978 99.8422C73.2851 99.7942 78.1651 98.3883 82.4135 95.7754C86.6619 93.1626 90.1181 89.4416 92.4108 85.0122L93.6116 85.6222C91.2083 90.2754 87.5809 94.1846 83.1203 96.9289C78.6596 99.6731 73.5348 101.148 68.2978 101.196V101.196Z" stroke="#1D1D1B" stroke-width="0.5" stroke-miterlimit="10"/>
<path d="M87.3786 128.073H49.2553L45.2905 85.5464H91.3243L87.3786 128.073ZM50.4753 126.72H86.1396L89.8375 86.8998H46.7773L50.4753 126.72Z" fill="#1D1D1B"/>
<path d="M87.3786 128.073H49.2553L45.2905 85.5464H91.3243L87.3786 128.073ZM50.4753 126.72H86.1396L89.8375 86.8998H46.7773L50.4753 126.72Z" stroke="#1D1D1B" stroke-width="0.5" stroke-miterlimit="10"/>
<path d="M91.3054 86.8998H44.9475C44.2195 86.8998 43.5214 86.6107 43.0066 86.0959C42.4918 85.5811 42.2026 84.883 42.2026 84.155V83.5259C42.2076 82.7995 42.4984 82.1042 43.0121 81.5905C43.5258 81.0769 44.2211 80.7861 44.9475 80.7811H91.3054C92.0318 80.7861 92.7271 81.0769 93.2408 81.5905C93.7545 82.1042 94.0452 82.7995 94.0502 83.5259V84.155C94.0502 84.883 93.7611 85.5811 93.2463 86.0959C92.7315 86.6107 92.0334 86.8998 91.3054 86.8998ZM44.9475 82.1344C44.5785 82.1344 44.2245 82.281 43.9636 82.542C43.7026 82.803 43.556 83.1569 43.556 83.5259V84.155C43.556 84.524 43.7026 84.878 43.9636 85.1389C44.2245 85.3999 44.5785 85.5465 44.9475 85.5465H91.3054C91.6744 85.5465 92.0283 85.3999 92.2893 85.1389C92.5503 84.878 92.6969 84.524 92.6969 84.155V83.5259C92.6969 83.1569 92.5503 82.803 92.2893 82.542C92.0283 82.281 91.6744 82.1344 91.3054 82.1344H44.9475Z" fill="#1D1D1B"/>
<path d="M91.3054 86.8998H44.9475C44.2195 86.8998 43.5214 86.6107 43.0066 86.0959C42.4918 85.5811 42.2026 84.883 42.2026 84.155V83.5259C42.2076 82.7995 42.4984 82.1042 43.0121 81.5905C43.5258 81.0769 44.2211 80.7861 44.9475 80.7811H91.3054C92.0318 80.7861 92.7271 81.0769 93.2408 81.5905C93.7545 82.1042 94.0452 82.7995 94.0502 83.5259V84.155C94.0502 84.883 93.7611 85.5811 93.2463 86.0959C92.7315 86.6107 92.0334 86.8998 91.3054 86.8998V86.8998ZM44.9475 82.1344C44.5785 82.1344 44.2245 82.281 43.9636 82.542C43.7026 82.803 43.556 83.1569 43.556 83.5259V84.155C43.556 84.524 43.7026 84.878 43.9636 85.1389C44.2245 85.3999 44.5785 85.5465 44.9475 85.5465H91.3054C91.6744 85.5465 92.0283 85.3999 92.2893 85.1389C92.5503 84.878 92.6969 84.524 92.6969 84.155V83.5259C92.6969 83.1569 92.5503 82.803 92.2893 82.542C92.0283 82.281 91.6744 82.1344 91.3054 82.1344H44.9475Z" stroke="#1D1D1B" stroke-width="0.5" stroke-miterlimit="10"/>
<path d="M93.059 82.1344H42.7363L43.3463 81.1242C43.6417 80.4893 44.113 79.9526 44.7042 79.5775C45.2955 79.2025 45.9819 79.005 46.6821 79.0083C46.819 77.951 47.35 76.9843 48.1689 76.3016C49.0264 75.6657 50.0759 75.3428 51.1425 75.3866C51.2125 74.7305 51.4143 74.0953 51.7358 73.5192C52.0573 72.943 52.4919 72.4377 53.0134 72.0336C53.535 71.6295 54.1329 71.3349 54.7711 71.1676C55.4093 71.0002 56.0748 70.9635 56.7276 71.0596C57.5953 69.8579 58.7017 68.8483 59.9776 68.0939C61.2535 67.3395 62.6714 66.8566 64.1425 66.6755C66.6026 66.5766 69.0145 67.3761 70.9285 68.9247C71.4671 68.5218 72.0889 68.2443 72.7484 68.1124C73.408 67.9805 74.0887 67.9975 74.7408 68.1623C75.8914 68.6014 76.8273 69.469 77.3522 70.5831C78.2029 70.0655 79.2223 69.9013 80.1924 70.1256C81.2023 70.4401 82.0586 71.1197 82.5942 72.0318C83.3669 71.8969 84.1598 71.9329 84.9172 72.137C85.6745 72.3412 86.3781 72.7086 86.9783 73.2136C87.6397 73.8101 88.0713 74.6194 88.1983 75.501C89.5077 75.8533 90.6737 76.6074 91.532 77.6572C92.3903 78.707 92.8977 79.9996 92.9828 81.3529L93.059 82.1344ZM47.902 80.7811H91.4959C91.3501 79.7616 90.874 78.8181 90.1407 78.0951C89.4074 77.3721 88.4572 76.9095 87.4358 76.7781H86.7305V76.0728C86.7453 75.7242 86.6905 75.3761 86.5694 75.0489C86.4484 74.7216 86.2634 74.4217 86.0253 74.1667C85.5231 73.7929 84.9481 73.5285 84.3374 73.3906C83.7267 73.2527 83.0939 73.2444 82.4798 73.3661H82.0033L81.7936 72.9277C81.419 72.2032 80.7865 71.6455 80.0209 71.3646C79.5947 71.298 79.1592 71.3248 78.7444 71.4433C78.3297 71.5618 77.9457 71.7691 77.6191 72.0508L76.8757 72.5846L76.4945 71.8221C76.3166 71.3125 76.0398 70.843 75.68 70.4406C75.3201 70.0383 74.8844 69.711 74.3977 69.4775C73.8443 69.3733 73.2743 69.3982 72.7321 69.5503C72.1899 69.7024 71.6901 69.9775 71.2716 70.3543L70.8141 70.6784L70.4138 70.2972C68.7184 68.7686 66.5007 67.9497 64.2188 68.0098C62.8724 68.1949 61.5804 68.6626 60.4273 69.382C59.2743 70.1014 58.2863 71.0563 57.5281 72.1843L57.2803 72.5274L56.861 72.4321C55.8601 72.2485 54.8267 72.4456 53.9636 72.9848C53.4948 73.3765 53.1135 73.8623 52.8443 74.4106C52.575 74.959 52.4239 75.5577 52.4006 76.1681V76.8734L51.7144 76.759C50.8011 76.6338 49.8733 76.8437 49.1029 77.35C48.7589 77.6622 48.4869 78.0456 48.3058 78.4735C48.1248 78.9014 48.039 79.3636 48.0545 79.828L47.902 80.7811ZM45.3668 80.7811H47.8067L47.0061 80.4379C46.727 80.3445 46.4281 80.3271 46.14 80.3873C45.8519 80.4476 45.585 80.5835 45.3668 80.7811Z" fill="#1D1D1B"/>
<path d="M93.059 82.1344H42.7363L43.3463 81.1242C43.6417 80.4893 44.113 79.9526 44.7042 79.5775C45.2955 79.2025 45.9819 79.005 46.6821 79.0083C46.819 77.951 47.35 76.9843 48.1689 76.3016C49.0264 75.6657 50.0759 75.3428 51.1425 75.3866C51.2125 74.7305 51.4143 74.0953 51.7358 73.5192C52.0573 72.943 52.4919 72.4377 53.0134 72.0336C53.535 71.6295 54.1329 71.3349 54.7711 71.1676C55.4093 71.0002 56.0748 70.9635 56.7276 71.0596C57.5953 69.8579 58.7017 68.8483 59.9776 68.0939C61.2535 67.3395 62.6714 66.8566 64.1425 66.6755C66.6026 66.5766 69.0145 67.3761 70.9285 68.9247C71.4671 68.5218 72.0888 68.2443 72.7484 68.1124C73.408 67.9805 74.0887 67.9975 74.7408 68.1623C75.8914 68.6014 76.8273 69.469 77.3522 70.5831C78.2029 70.0655 79.2223 69.9013 80.1924 70.1256C81.2023 70.4401 82.0586 71.1197 82.5942 72.0318C83.3669 71.8969 84.1598 71.9329 84.9172 72.137C85.6746 72.3412 86.3781 72.7086 86.9783 73.2136C87.6397 73.8101 88.0713 74.6194 88.1983 75.501C89.5077 75.8533 90.6737 76.6074 91.532 77.6572C92.3903 78.707 92.8977 79.9996 92.9828 81.3529L93.059 82.1344ZM47.902 80.7811H91.4959C91.3501 79.7616 90.874 78.8181 90.1407 78.0951C89.4074 77.3721 88.4572 76.9095 87.4358 76.7781H86.7305V76.0728C86.7453 75.7242 86.6905 75.3761 86.5694 75.0489C86.4484 74.7216 86.2634 74.4217 86.0253 74.1667C85.5231 73.7929 84.9481 73.5285 84.3374 73.3906C83.7267 73.2527 83.0939 73.2444 82.4798 73.3661H82.0033L81.7936 72.9277C81.419 72.2032 80.7865 71.6455 80.0209 71.3646C79.5947 71.298 79.1592 71.3248 78.7444 71.4433C78.3297 71.5618 77.9457 71.7691 77.6191 72.0508L76.8757 72.5846L76.4945 71.8221C76.3166 71.3125 76.0398 70.843 75.68 70.4406C75.3201 70.0383 74.8844 69.711 74.3977 69.4775C73.8443 69.3733 73.2743 69.3982 72.7321 69.5503C72.1899 69.7024 71.6901 69.9775 71.2716 70.3543L70.8141 70.6784L70.4138 70.2972C68.7184 68.7686 66.5007 67.9497 64.2188 68.0098C62.8724 68.1949 61.5804 68.6626 60.4273 69.382C59.2743 70.1014 58.2863 71.0563 57.5281 72.1843L57.2803 72.5274L56.861 72.4321C55.8601 72.2485 54.8267 72.4456 53.9636 72.9848C53.4948 73.3765 53.1135 73.8623 52.8443 74.4106C52.575 74.959 52.4239 75.5577 52.4006 76.1681V76.8734L51.7144 76.759C50.8011 76.6338 49.8733 76.8437 49.1029 77.35C48.7589 77.6622 48.4869 78.0456 48.3058 78.4735C48.1248 78.9014 48.039 79.3636 48.0545 79.828L47.902 80.7811ZM45.3668 80.7811H47.8067L47.0061 80.4379C46.727 80.3445 46.4281 80.327 46.14 80.3873C45.8519 80.4476 45.585 80.5835 45.3668 80.7811V80.7811Z" stroke="#1D1D1B" stroke-width="0.5" stroke-miterlimit="10"/>
<path d="M68.1836 63.7968C67.3345 63.7968 66.5046 63.5448 65.7989 63.0727C65.0932 62.6006 64.5435 61.9296 64.2194 61.1448C63.8954 60.36 63.8116 59.4967 63.9786 58.6642C64.1456 57.8318 64.556 57.0676 65.1577 56.4686C65.7594 55.8695 66.5254 55.4625 67.3586 55.2992C68.1918 55.1359 69.0548 55.2235 69.8381 55.5511C70.6215 55.8786 71.29 56.4313 71.759 57.1391C72.2279 57.8469 72.4762 58.678 72.4725 59.527C72.4725 60.0894 72.3614 60.6462 72.1456 61.1654C71.9299 61.6847 71.6137 62.1563 71.2151 62.553C70.8166 62.9498 70.3437 63.2639 69.8234 63.4773C69.3032 63.6908 68.7459 63.7994 68.1836 63.7968ZM68.1836 56.5916C67.6 56.5764 67.0251 56.7356 66.5325 57.0488C66.0398 57.362 65.6517 57.815 65.4178 58.3498C65.1839 58.8847 65.1148 59.4772 65.2193 60.0516C65.3238 60.6259 65.5972 61.1561 66.0045 61.5743C66.4119 61.9925 66.9346 62.2797 67.506 62.3993C68.0775 62.5189 68.6715 62.4654 69.2124 62.2456C69.7532 62.0259 70.2163 61.6498 70.5423 61.1656C70.8684 60.6813 71.0426 60.1108 71.0428 59.527C71.0481 58.7582 70.7515 58.0181 70.2169 57.4656C69.6822 56.9131 68.9522 56.5924 68.1836 56.5725" fill="#1D1D1B"/>
<path d="M68.1836 63.7968C67.3345 63.7968 66.5046 63.5448 65.7989 63.0727C65.0932 62.6006 64.5435 61.9296 64.2194 61.1448C63.8954 60.36 63.8116 59.4967 63.9786 58.6642C64.1456 57.8318 64.556 57.0676 65.1577 56.4686C65.7594 55.8695 66.5254 55.4625 67.3586 55.2992C68.1918 55.1359 69.0548 55.2235 69.8381 55.5511C70.6215 55.8786 71.29 56.4313 71.759 57.1391C72.2279 57.8469 72.4762 58.678 72.4725 59.527C72.4725 60.0894 72.3614 60.6462 72.1456 61.1654C71.9299 61.6847 71.6137 62.1563 71.2151 62.553C70.8166 62.9498 70.3437 63.2639 69.8234 63.4773C69.3032 63.6908 68.7459 63.7994 68.1836 63.7968V63.7968ZM68.1836 56.5916C67.6 56.5764 67.0251 56.7356 66.5325 57.0488C66.0398 57.362 65.6517 57.815 65.4178 58.3498C65.1839 58.8847 65.1148 59.4772 65.2193 60.0516C65.3238 60.6259 65.5972 61.1561 66.0045 61.5743C66.4119 61.9925 66.9346 62.2797 67.506 62.3993C68.0775 62.5189 68.6715 62.4654 69.2124 62.2456C69.7532 62.0259 70.2163 61.6498 70.5423 61.1656C70.8684 60.6813 71.0426 60.1108 71.0428 59.527C71.0481 58.7582 70.7515 58.0181 70.2169 57.4656C69.6822 56.9131 68.9522 56.5924 68.1836 56.5725V56.5916Z" stroke="#1D1D1B" stroke-width="0.5" stroke-miterlimit="10"/>
<path d="M66.7919 49.9007C66.2081 49.9005 65.6377 49.7262 65.1534 49.4002C64.6692 49.0741 64.2931 48.6111 64.0734 48.0703C63.8536 47.5294 63.8001 46.9353 63.9197 46.3639C64.0393 45.7925 64.3265 45.2697 64.7447 44.8624C65.1629 44.455 65.6931 44.1817 66.2674 44.0771C66.8418 43.9726 67.4342 44.0418 67.9691 44.2757C68.504 44.5096 68.957 44.8977 69.2702 45.3903C69.5834 45.883 69.7426 46.4579 69.7274 47.0415C69.7224 47.8185 69.4115 48.5622 68.8621 49.1116C68.3127 49.6611 67.5689 49.972 66.7919 49.977V49.9007ZM66.7919 45.4593C66.3723 45.4593 65.9699 45.626 65.6732 45.9227C65.3765 46.2194 65.2098 46.6219 65.2098 47.0415C65.2098 47.4611 65.3765 47.8635 65.6732 48.1602C65.9699 48.4569 66.3723 48.6236 66.7919 48.6236C67.2115 48.6236 67.6139 48.4569 67.9106 48.1602C68.2074 47.8635 68.374 47.4611 68.374 47.0415C68.374 46.6219 68.2074 46.2194 67.9106 45.9227C67.6139 45.626 67.2115 45.4593 66.7919 45.4593Z" fill="#1D1D1B"/>
<path d="M66.7919 49.9007C66.2081 49.9005 65.6377 49.7262 65.1534 49.4002C64.6692 49.0741 64.2931 48.6111 64.0734 48.0703C63.8536 47.5294 63.8001 46.9353 63.9197 46.3639C64.0393 45.7925 64.3265 45.2697 64.7447 44.8624C65.1629 44.455 65.6931 44.1817 66.2674 44.0771C66.8418 43.9726 67.4342 44.0418 67.9691 44.2757C68.504 44.5096 68.957 44.8977 69.2702 45.3903C69.5834 45.883 69.7426 46.4579 69.7274 47.0415C69.7028 47.8051 69.3833 48.5296 68.8359 49.0627C68.2886 49.5958 67.556 49.8962 66.7919 49.9007V49.9007ZM66.7919 45.3831C66.3723 45.3831 65.9699 45.5498 65.6732 45.8465C65.3765 46.1432 65.2098 46.5456 65.2098 46.9652C65.2098 47.3848 65.3765 47.7872 65.6732 48.0839C65.9699 48.3806 66.3723 48.5473 66.7919 48.5473C67.2115 48.5473 67.6139 48.3806 67.9106 48.0839C68.2074 47.7872 68.374 47.3848 68.374 46.9652C68.374 46.5456 68.2074 46.1432 67.9106 45.8465C67.6139 45.5498 67.2115 45.3831 66.7919 45.3831V45.3831Z" stroke="#1D1D1B" stroke-width="0.5" stroke-miterlimit="10"/>
<path d="M95.2699 105.714C94.6902 105.71 94.1245 105.534 93.6443 105.21C93.1641 104.885 92.7908 104.425 92.5715 103.888C92.3523 103.352 92.2969 102.762 92.4123 102.194C92.5277 101.626 92.8087 101.104 93.22 100.696C93.6313 100.287 94.1544 100.009 94.7233 99.8977C95.2922 99.786 95.8814 99.8452 96.4167 100.068C96.952 100.291 97.4093 100.667 97.7311 101.149C98.0528 101.632 98.2245 102.198 98.2245 102.778C98.2245 103.165 98.148 103.548 97.9992 103.906C97.8505 104.263 97.6326 104.588 97.358 104.861C97.0834 105.133 96.7575 105.349 96.3992 105.496C96.0408 105.642 95.657 105.716 95.2699 105.714ZM95.2699 101.196C94.8503 101.196 94.4479 101.363 94.1512 101.659C93.8545 101.956 93.6878 102.359 93.6878 102.778C93.6878 103.198 93.8545 103.6 94.1512 103.897C94.4479 104.194 94.8503 104.36 95.2699 104.36C95.6895 104.36 96.092 104.194 96.3887 103.897C96.6854 103.6 96.8521 103.198 96.8521 102.778C96.8521 102.359 96.6854 101.956 96.3887 101.659C96.092 101.363 95.6895 101.196 95.2699 101.196Z" fill="#1D1D1B"/>
<path d="M95.2699 105.714C94.6902 105.71 94.1245 105.534 93.6443 105.21C93.1641 104.885 92.7908 104.425 92.5715 103.888C92.3523 103.352 92.2969 102.762 92.4123 102.194C92.5277 101.626 92.8087 101.104 93.22 100.696C93.6313 100.287 94.1544 100.009 94.7233 99.8977C95.2922 99.786 95.8814 99.8452 96.4167 100.068C96.952 100.291 97.4093 100.667 97.7311 101.149C98.0528 101.632 98.2245 102.198 98.2245 102.778C98.2245 103.165 98.148 103.548 97.9992 103.906C97.8505 104.263 97.6326 104.588 97.358 104.861C97.0834 105.133 96.7575 105.349 96.3992 105.496C96.0408 105.642 95.657 105.716 95.2699 105.714V105.714ZM95.2699 101.196C94.8503 101.196 94.4479 101.363 94.1512 101.659C93.8545 101.956 93.6878 102.359 93.6878 102.778C93.6878 103.198 93.8545 103.6 94.1512 103.897C94.4479 104.194 94.8503 104.36 95.2699 104.36C95.6895 104.36 96.092 104.194 96.3887 103.897C96.6854 103.6 96.8521 103.198 96.8521 102.778C96.8521 102.359 96.6854 101.956 96.3887 101.659C96.092 101.363 95.6895 101.196 95.2699 101.196Z" stroke="#1D1D1B" stroke-width="0.5" stroke-miterlimit="10"/>
<path d="M78.8961 55.5432C77.9733 55.5432 77.0711 55.2698 76.3036 54.7575C75.536 54.2451 74.9374 53.5169 74.5834 52.6646C74.2294 51.8124 74.1358 50.8744 74.3144 49.969C74.4931 49.0636 74.936 48.2315 75.5872 47.5776C76.2384 46.9237 77.0688 46.4774 77.9734 46.2951C78.8781 46.1127 79.8165 46.2025 80.6701 46.553C81.5238 46.9036 82.2545 47.4992 82.7699 48.2647C83.2854 49.0302 83.5625 49.9312 83.5662 50.854C83.5662 52.0926 83.0742 53.2805 82.1984 54.1563C81.3226 55.0321 80.1347 55.5241 78.8961 55.5241V55.5432ZM78.8961 47.5373C78.2401 47.5373 77.5989 47.7318 77.0535 48.0963C76.508 48.4607 76.0829 48.9787 75.8319 49.5848C75.5809 50.1908 75.5152 50.8577 75.6431 51.5011C75.7711 52.1445 76.087 52.7355 76.5509 53.1993C77.0147 53.6632 77.6057 53.9791 78.2491 54.107C78.8925 54.235 79.5593 54.1693 80.1654 53.9183C80.7714 53.6673 81.2894 53.2421 81.6539 52.6967C82.0183 52.1513 82.2129 51.51 82.2129 50.854C82.2129 49.9744 81.8634 49.1308 81.2414 48.5088C80.6194 47.8868 79.7758 47.5373 78.8961 47.5373Z" fill="#1D1D1B"/>
<path d="M78.8961 55.5432C77.9733 55.5432 77.0711 55.2698 76.3036 54.7575C75.536 54.2451 74.9374 53.5169 74.5834 52.6646C74.2294 51.8124 74.1358 50.8744 74.3144 49.969C74.4931 49.0636 74.936 48.2315 75.5872 47.5776C76.2384 46.9237 77.0688 46.4774 77.9734 46.2951C78.8781 46.1127 79.8165 46.2025 80.6701 46.553C81.5238 46.9036 82.2545 47.4992 82.7699 48.2647C83.2854 49.0302 83.5625 49.9312 83.5662 50.854C83.5687 51.4689 83.4498 52.0783 83.2162 52.6471C82.9827 53.2159 82.6391 53.7329 82.2052 54.1686C81.7712 54.6043 81.2556 54.95 80.6877 55.1859C80.1199 55.4218 79.511 55.5432 78.8961 55.5432ZM78.8961 47.5564C78.2393 47.5564 77.5973 47.7514 77.0515 48.1167C76.5057 48.482 76.0806 49.0011 75.8301 49.6083C75.5796 50.2155 75.5151 50.8833 75.6446 51.5272C75.7741 52.1711 76.0919 52.762 76.5577 53.2251C77.0234 53.6882 77.6162 54.0026 78.2608 54.1284C78.9055 54.2542 79.5729 54.1858 80.1787 53.9318C80.7844 53.6779 81.301 53.2498 81.6632 52.7019C82.0253 52.1539 82.2166 51.5108 82.2129 50.854C82.2078 49.9777 81.8562 49.139 81.2347 48.5211C80.6132 47.9032 79.7725 47.5564 78.8961 47.5564V47.5564Z" stroke="#1D1D1B" stroke-width="0.5" stroke-miterlimit="10"/>
<path d="M117.134 110.04H108.575V48.2233C108.575 47.6726 108.684 47.1273 108.894 46.6185C109.105 46.1097 109.414 45.6474 109.803 45.258C110.193 44.8686 110.655 44.5597 111.164 44.3489C111.673 44.1382 112.218 44.0297 112.769 44.0297H112.978C114.091 44.0297 115.157 44.4715 115.944 45.258C116.73 46.0444 117.172 47.1111 117.172 48.2233L117.134 110.04ZM109.929 108.687H115.78V48.2233C115.781 47.4766 115.487 46.7599 114.962 46.2283C114.438 45.6968 113.725 45.3931 112.978 45.3831H112.807C112.054 45.3831 111.331 45.6823 110.799 46.215C110.266 46.7476 109.967 47.47 109.967 48.2233L109.929 108.687Z" fill="#1D1D1B"/>
<path d="M117.134 110.04H108.575V48.2233C108.575 47.6726 108.684 47.1273 108.894 46.6185C109.105 46.1097 109.414 45.6474 109.803 45.258C110.193 44.8686 110.655 44.5597 111.164 44.3489C111.673 44.1382 112.218 44.0297 112.769 44.0297H112.978C114.091 44.0297 115.157 44.4715 115.944 45.258C116.73 46.0444 117.172 47.1111 117.172 48.2233L117.134 110.04ZM109.929 108.687H115.78V48.2233C115.781 47.4766 115.487 46.7599 114.962 46.2283C114.438 45.6968 113.725 45.3931 112.978 45.3831H112.807C112.054 45.3831 111.331 45.6823 110.799 46.215C110.266 46.7476 109.967 47.47 109.967 48.2233L109.929 108.687Z" stroke="#1D1D1B" stroke-width="0.5" stroke-miterlimit="10"/>
<path d="M131.316 115.892H94.2598V112.785C94.2598 111.774 94.6614 110.804 95.3764 110.089C96.0913 109.374 97.061 108.972 98.0721 108.972H127.427C128.438 108.972 129.408 109.374 130.123 110.089C130.838 110.804 131.239 111.774 131.239 112.785L131.316 115.892ZM95.6131 114.538H129.924V112.785C129.919 112.116 129.65 111.476 129.175 111.004C128.7 110.533 128.058 110.269 127.389 110.269H98.1483C97.4793 110.269 96.8373 110.533 96.3624 111.004C95.8875 111.476 95.6182 112.116 95.6131 112.785V114.538Z" fill="#1D1D1B"/>
<path d="M131.316 115.892H94.2598V112.785C94.2598 111.774 94.6614 110.804 95.3764 110.089C96.0913 109.374 97.061 108.972 98.0721 108.972H127.427C128.438 108.972 129.408 109.374 130.123 110.089C130.838 110.804 131.239 111.774 131.239 112.785L131.316 115.892ZM95.6131 114.538H129.924V112.785C129.919 112.116 129.65 111.476 129.175 111.004C128.7 110.533 128.058 110.269 127.389 110.269H98.1483C97.4793 110.269 96.8373 110.533 96.3624 111.004C95.8875 111.476 95.6182 112.116 95.6131 112.785V114.538Z" stroke="#1D1D1B" stroke-width="0.5" stroke-miterlimit="10"/>
<path d="M130.973 128.072H94.0502C93.5496 128.069 93.0572 127.945 92.6144 127.712C92.1715 127.478 91.7912 127.142 91.5054 126.731C91.2196 126.32 91.0367 125.846 90.972 125.35C90.9073 124.854 90.9628 124.349 91.1337 123.879L94.4695 114.767H131.106L134.213 123.44C134.403 123.961 134.465 124.521 134.392 125.071C134.32 125.621 134.117 126.145 133.799 126.6C133.481 127.054 133.058 127.425 132.566 127.682C132.074 127.938 131.527 128.072 130.973 128.072ZM95.4226 116.121L92.4109 124.355C92.3165 124.62 92.2863 124.903 92.3228 125.181C92.3592 125.459 92.4613 125.725 92.6205 125.956C92.7788 126.19 92.9917 126.382 93.2408 126.515C93.49 126.648 93.7678 126.718 94.0502 126.719H130.973C131.309 126.717 131.64 126.634 131.939 126.478C132.237 126.323 132.494 126.098 132.688 125.823C132.883 125.55 133.007 125.233 133.051 124.901C133.094 124.568 133.054 124.23 132.936 123.917L130.134 116.121H95.4226Z" fill="#1D1D1B"/>
<path d="M130.973 128.072H94.0502C93.5496 128.069 93.0572 127.945 92.6144 127.712C92.1715 127.478 91.7912 127.142 91.5054 126.731C91.2196 126.32 91.0367 125.846 90.972 125.35C90.9073 124.854 90.9628 124.349 91.1337 123.879L94.4695 114.767H131.106L134.213 123.44C134.403 123.961 134.465 124.521 134.392 125.071C134.32 125.621 134.117 126.145 133.799 126.6C133.481 127.054 133.058 127.425 132.566 127.682C132.074 127.938 131.527 128.072 130.973 128.072ZM95.4226 116.121L92.4109 124.355C92.3165 124.62 92.2863 124.903 92.3228 125.181C92.3592 125.459 92.4613 125.725 92.6205 125.956C92.7788 126.19 92.9917 126.382 93.2408 126.515C93.49 126.648 93.7678 126.718 94.0502 126.719H130.973C131.309 126.717 131.64 126.634 131.939 126.478C132.237 126.323 132.494 126.098 132.688 125.823C132.883 125.55 133.007 125.233 133.051 124.901C133.094 124.568 133.054 124.23 132.936 123.917L130.134 116.121H95.4226Z" stroke="#1D1D1B" stroke-width="0.5" stroke-miterlimit="10"/>
<path d="M99.1461 115.271L96.439 127.225L97.7589 127.524L100.466 115.57L99.1461 115.271Z" fill="#1D1D1B"/>
<path d="M99.1461 115.271L96.439 127.225L97.7589 127.524L100.466 115.57L99.1461 115.271Z" stroke="#1D1D1B" stroke-width="0.5" stroke-miterlimit="10"/>
<path d="M106.152 114.5L104.213 126.502L105.552 126.718L107.492 114.717L106.152 114.5Z" fill="#1D1D1B"/>
<path d="M106.152 114.5L104.213 126.502L105.552 126.718L107.492 114.717L106.152 114.5Z" stroke="#1D1D1B" stroke-width="0.501423" stroke-miterlimit="10"/>
<path d="M113.436 115.434H112.083V127.386H113.436V115.434Z" fill="#1D1D1B"/>
<path d="M113.436 115.434H112.083V127.386H113.436V115.434Z" stroke="#1D1D1B" stroke-width="0.5" stroke-miterlimit="10"/>
<path d="M118.932 115.282L117.618 115.604L120.547 127.564L121.861 127.242L118.932 115.282Z" fill="#1D1D1B"/>
<path d="M118.932 115.282L117.618 115.604L120.547 127.564L121.861 127.242L118.932 115.282Z" stroke="#1D1D1B" stroke-width="0.5" stroke-miterlimit="10"/>
<path d="M125.146 115.025L123.839 115.374L127.085 127.548L128.392 127.2L125.146 115.025Z" fill="#1D1D1B"/>
<path d="M125.146 115.025L123.839 115.374L127.085 127.548L128.392 127.2L125.146 115.025Z" stroke="#1D1D1B" stroke-width="0.5" stroke-miterlimit="10"/>
<g style="mix-blend-mode:overlay" opacity="0.35" clip-path="url(#clip0)">
<path d="M89.2083 81.8097C89.2083 81.8097 43.0792 58.1732 21.3489 79.7129C-0.190707 101.443 -7.24351 144.141 8.57764 162.059C24.3988 179.977 81.2024 175.212 97.5954 154.053C107.317 141.663 117.991 121.267 89.2083 81.8097Z" fill="#F8F0EF"/>
</g>
<defs>
<clipPath id="clip0">
<rect width="107.889" height="102.552" fill="white" transform="translate(0 70.5634)"/>
</clipPath>
</defs>
</svg>
