<svg width="170" height="167" viewBox="0 0 170 167" fill="none" xmlns="http://www.w3.org/2000/svg">
<g style="mix-blend-mode:multiply">
<g style="mix-blend-mode:multiply">
<g style="mix-blend-mode:multiply">
<g style="mix-blend-mode:multiply">
<path d="M1.96101 103.687C-0.560452 91.8566 -0.651298 79.6373 1.69398 67.7708C4.03926 55.9043 8.77174 44.6383 15.6041 34.6567C28.0723 16.788 48.9159 1.04164 83.4405 4.33872C157.568 11.5582 194.101 88.6795 152.584 113.218C113.38 136.336 27.106 225.887 1.96101 103.687Z" fill="#D1E0DA"/>
</g>
</g>
</g>
</g>
<path d="M36.3719 70.4696C34.9192 70.4808 33.4959 70.0603 32.2825 69.2614C31.0691 68.4625 30.1203 67.3212 29.5566 65.9823C28.9928 64.6434 28.8395 63.1672 29.116 61.7409C29.3925 60.3147 30.0864 59.0028 31.1096 57.9715C32.1329 56.9403 33.4394 56.2362 34.8634 55.9486C36.2875 55.661 37.7648 55.8029 39.1081 56.3562C40.4514 56.9095 41.6 57.8493 42.4083 59.0565C43.2167 60.2636 43.6482 61.6836 43.6483 63.1364C43.6483 65.0813 42.8757 66.9465 41.5004 68.3217C40.1252 69.697 38.26 70.4696 36.3151 70.4696H36.3719ZM36.3151 57.3192C35.1645 57.3192 34.0398 57.6603 33.0832 58.2995C32.1266 58.9387 31.3809 59.8473 30.9406 60.9102C30.5004 61.9732 30.3852 63.1429 30.6096 64.2713C30.8341 65.3997 31.3881 66.4363 32.2017 67.2498C33.0152 68.0634 34.0518 68.6174 35.1802 68.8419C36.3086 69.0663 37.4783 68.9512 38.5413 68.5109C39.6042 68.0706 40.5128 67.3249 41.152 66.3683C41.7912 65.4117 42.1324 64.287 42.1324 63.1364C42.1274 61.5951 41.5129 60.1184 40.423 59.0285C39.3331 57.9386 37.8564 57.3241 36.3151 57.3192Z" fill="#1D1D1B"/>
<path d="M36.3719 70.4696C34.9192 70.4808 33.4959 70.0603 32.2825 69.2614C31.0691 68.4625 30.1203 67.3212 29.5566 65.9823C28.9928 64.6434 28.8395 63.1672 29.116 61.7409C29.3925 60.3147 30.0864 59.0028 31.1096 57.9715C32.1329 56.9403 33.4394 56.2362 34.8634 55.9486C36.2875 55.661 37.7648 55.8029 39.1081 56.3562C40.4514 56.9095 41.6 57.8493 42.4083 59.0565C43.2167 60.2636 43.6482 61.6836 43.6483 63.1364C43.6483 65.0715 42.8835 66.9281 41.5206 68.3017C40.1576 69.6754 38.3069 70.4546 36.3719 70.4696V70.4696ZM36.3719 57.3192C35.2214 57.3192 34.0967 57.6603 33.14 58.2995C32.1834 58.9387 31.4378 59.8473 30.9975 60.9102C30.5572 61.9732 30.442 63.1429 30.6665 64.2713C30.8909 65.3997 31.445 66.4363 32.2585 67.2498C33.0721 68.0634 34.1086 68.6174 35.2371 68.8419C36.3655 69.0663 37.5351 68.9512 38.5981 68.5109C39.6611 68.0706 40.5696 67.3249 41.2088 66.3683C41.848 65.4117 42.1892 64.287 42.1892 63.1364C42.1842 61.5951 41.5697 60.1184 40.4798 59.0285C39.39 57.9386 37.9132 57.3241 36.3719 57.3192V57.3192Z" stroke="#1D1D1B" stroke-width="0.5" stroke-miterlimit="10"/>
<path d="M36.1824 112.119C35.2367 112.123 34.3235 111.774 33.6223 111.139C32.9211 110.505 32.4825 109.631 32.3926 108.689L31.3505 97.3202C31.2986 96.7276 31.0203 96.1779 30.5736 95.7853L27.8639 93.4925C27.386 93.078 27.0195 92.5505 26.7977 91.9581C26.576 91.3656 26.5061 90.7271 26.5943 90.1007L28.7166 74.9417C28.8453 74.0311 29.3007 73.1984 29.998 72.5988C30.6952 71.9991 31.5867 71.6735 32.5063 71.6825H40.389C41.3002 71.6715 42.1848 71.9892 42.8808 72.5773C43.5768 73.1654 44.0376 73.9847 44.1788 74.8849L46.4905 90.6692C46.588 91.4177 46.4598 92.1784 46.1222 92.8536C45.7846 93.5288 45.253 94.0878 44.5956 94.4589L41.2228 96.5433L39.9532 108.727C39.8545 109.662 39.4121 110.527 38.7118 111.153C38.0115 111.78 37.1033 112.124 36.1634 112.119H36.1824ZM32.3737 73.1984C31.8352 73.1992 31.314 73.3894 30.9017 73.7359C30.4894 74.0824 30.2123 74.5629 30.1188 75.0933L27.9965 90.2523C27.9379 90.6315 27.9786 91.0194 28.1148 91.3781C28.251 91.7368 28.4779 92.054 28.7734 92.2987L31.4642 94.6105C32.2215 95.2507 32.6977 96.1623 32.7906 97.1496L33.8328 108.424C33.9042 108.977 34.1745 109.484 34.5929 109.852C35.0114 110.22 35.5495 110.423 36.1066 110.423C36.6637 110.423 37.2018 110.22 37.6203 109.852C38.0387 109.484 38.309 108.977 38.3804 108.424L39.8584 95.6337L43.9703 93.2083C44.3644 92.9778 44.68 92.6341 44.876 92.2217C45.072 91.8094 45.1394 91.3477 45.0693 90.8965L42.606 75.1312C42.512 74.5976 42.232 74.1146 41.8158 73.7677C41.3996 73.4208 40.874 73.2326 40.3322 73.2363L32.3737 73.1984Z" fill="#1D1D1B"/>
<path d="M36.1824 112.119C35.2367 112.123 34.3235 111.774 33.6223 111.139C32.9211 110.505 32.4825 109.631 32.3926 108.689L31.3505 97.3202C31.2986 96.7276 31.0203 96.1779 30.5736 95.7853L27.8639 93.4925C27.386 93.078 27.0195 92.5505 26.7977 91.9581C26.576 91.3656 26.5061 90.7271 26.5943 90.1007L28.7166 74.9417C28.8453 74.0311 29.3007 73.1984 29.998 72.5988C30.6952 71.9991 31.5867 71.6735 32.5063 71.6825H40.389C41.3002 71.6715 42.1848 71.9892 42.8808 72.5773C43.5768 73.1654 44.0376 73.9847 44.1788 74.8849L46.4905 90.6692C46.588 91.4177 46.4598 92.1784 46.1222 92.8536C45.7846 93.5288 45.253 94.0878 44.5956 94.4589L41.2228 96.5433L39.9532 108.727C39.8549 109.659 39.4151 110.521 38.7188 111.147C38.0225 111.773 37.1189 112.12 36.1824 112.119ZM32.3926 73.1984C31.8541 73.1992 31.333 73.3894 30.9207 73.7359C30.5084 74.0824 30.2312 74.5629 30.1377 75.0933L28.0155 90.2523C27.9568 90.6315 27.9976 91.0194 28.1338 91.3781C28.2699 91.7368 28.4969 92.054 28.7924 92.2987L31.4831 94.6105C32.2404 95.2507 32.7166 96.1623 32.8095 97.1496L33.8517 108.424C33.9232 108.977 34.1934 109.484 34.6119 109.852C35.0303 110.22 35.5684 110.423 36.1255 110.423C36.6827 110.423 37.2208 110.22 37.6392 109.852C38.0577 109.484 38.3279 108.977 38.3994 108.424L39.8584 95.6337L43.9703 93.2083C44.3644 92.9778 44.68 92.634 44.876 92.2217C45.072 91.8094 45.1394 91.3477 45.0693 90.8965L42.606 75.1312C42.512 74.5976 42.232 74.1146 41.8158 73.7677C41.3996 73.4208 40.874 73.2326 40.3322 73.2363L32.3926 73.1984Z" stroke="#1D1D1B" stroke-width="0.5" stroke-miterlimit="10"/>
<path d="M125.564 70.4698C124.113 70.4698 122.695 70.0397 121.489 69.2339C120.283 68.4281 119.344 67.2829 118.789 65.9429C118.234 64.6029 118.088 63.1285 118.371 61.706C118.654 60.2835 119.353 58.9769 120.378 57.9513C121.404 56.9257 122.71 56.2273 124.133 55.9444C125.555 55.6614 127.03 55.8066 128.37 56.3617C129.71 56.9167 130.855 57.8566 131.661 59.0625C132.467 60.2685 132.897 61.6863 132.897 63.1366C132.897 65.0815 132.124 66.9467 130.749 68.322C129.374 69.6972 127.508 70.4698 125.564 70.4698ZM125.564 57.3194C124.413 57.3194 123.288 57.6605 122.332 58.2998C121.375 58.939 120.629 59.8475 120.189 60.9105C119.749 61.9734 119.634 63.1431 119.858 64.2715C120.082 65.4 120.637 66.4365 121.45 67.2501C122.264 68.0636 123.3 68.6176 124.429 68.8421C125.557 69.0666 126.727 68.9514 127.79 68.5111C128.853 68.0708 129.761 67.3252 130.4 66.3685C131.04 65.4119 131.381 64.2872 131.381 63.1366C131.376 61.5953 130.761 60.1186 129.671 59.0287C128.582 57.9389 127.105 57.3244 125.564 57.3194Z" fill="#1D1D1B"/>
<path d="M125.564 70.4698C124.113 70.4698 122.695 70.0397 121.489 69.2339C120.283 68.4281 119.344 67.2829 118.789 65.9429C118.234 64.6029 118.088 63.1285 118.371 61.706C118.654 60.2835 119.353 58.9769 120.378 57.9513C121.404 56.9257 122.71 56.2273 124.133 55.9444C125.555 55.6614 127.03 55.8066 128.37 56.3617C129.71 56.9167 130.855 57.8566 131.661 59.0625C132.467 60.2685 132.897 61.6863 132.897 63.1366C132.897 65.0815 132.124 66.9467 130.749 68.322C129.374 69.6972 127.508 70.4698 125.564 70.4698ZM125.564 57.3194C124.413 57.3194 123.288 57.6605 122.332 58.2998C121.375 58.939 120.629 59.8475 120.189 60.9105C119.749 61.9734 119.634 63.1431 119.858 64.2715C120.082 65.4 120.637 66.4365 121.45 67.2501C122.264 68.0636 123.3 68.6176 124.429 68.8421C125.557 69.0666 126.727 68.9514 127.79 68.5111C128.853 68.0708 129.761 67.3252 130.4 66.3685C131.04 65.4119 131.381 64.2872 131.381 63.1366C131.376 61.5953 130.761 60.1186 129.671 59.0287C128.582 57.9389 127.105 57.3244 125.564 57.3194V57.3194Z" stroke="#1D1D1B" stroke-width="0.5" stroke-miterlimit="10"/>
<path d="M125.393 112.119C124.447 112.123 123.534 111.773 122.833 111.139C122.132 110.504 121.693 109.63 121.603 108.689L120.561 97.3197C120.504 96.7244 120.219 96.1743 119.765 95.7848L117.075 93.4921C116.587 93.0797 116.211 92.5509 115.983 91.9546C115.754 91.3583 115.68 90.7139 115.767 90.0813L117.889 74.9223C118.018 74.0117 118.473 73.179 119.171 72.5793C119.868 71.9797 120.76 71.6541 121.679 71.6631H129.562C130.473 71.6521 131.358 71.9698 132.054 72.5579C132.75 73.146 133.21 73.9652 133.352 74.8655L135.777 90.6308C135.874 91.3794 135.746 92.14 135.409 92.8152C135.071 93.4904 134.539 94.0494 133.882 94.4205L130.414 96.5428L129.164 108.727C129.065 109.661 128.623 110.526 127.922 111.153C127.222 111.78 126.314 112.124 125.374 112.119H125.393ZM121.584 73.198C121.046 73.1987 120.525 73.389 120.112 73.7354C119.7 74.0819 119.423 74.5625 119.329 75.0928L117.207 90.2518C117.154 90.6307 117.197 91.017 117.333 91.3747C117.469 91.7324 117.693 92.0501 117.984 92.2983L120.694 94.61C121.444 95.2535 121.913 96.1647 122.001 97.1492L123.043 108.424C123.095 108.993 123.358 109.523 123.781 109.909C124.203 110.294 124.755 110.508 125.327 110.508C125.899 110.508 126.45 110.294 126.873 109.909C127.295 109.523 127.558 108.993 127.61 108.424L128.936 95.4817L133.048 93.0562C133.446 92.8297 133.765 92.4866 133.961 92.0732C134.158 91.6598 134.223 91.196 134.147 90.7445L131.798 75.1307C131.707 74.5955 131.428 74.1102 131.011 73.7627C130.594 73.4151 130.067 73.2283 129.524 73.2359L121.584 73.198Z" fill="#1D1D1B"/>
<path d="M125.393 112.119C124.447 112.123 123.534 111.773 122.833 111.139C122.132 110.504 121.693 109.63 121.603 108.689L120.561 97.3197C120.504 96.7244 120.219 96.1743 119.765 95.7848L117.075 93.4921C116.587 93.0797 116.211 92.5509 115.983 91.9546C115.754 91.3583 115.68 90.7139 115.767 90.0813L117.889 74.9223C118.018 74.0117 118.473 73.179 119.171 72.5793C119.868 71.9797 120.76 71.6541 121.679 71.6631H129.562C130.473 71.6521 131.358 71.9698 132.054 72.5579C132.75 73.146 133.21 73.9652 133.352 74.8655L135.777 90.6308C135.874 91.3794 135.746 92.14 135.409 92.8152C135.071 93.4904 134.539 94.0494 133.882 94.4205L130.414 96.5428L129.164 108.727C129.065 109.658 128.626 110.52 127.929 111.147C127.233 111.773 126.33 112.119 125.393 112.119ZM121.603 73.198C121.065 73.1987 120.544 73.389 120.131 73.7354C119.719 74.0819 119.442 74.5625 119.348 75.0928L117.226 90.2518C117.173 90.6307 117.216 91.017 117.352 91.3747C117.488 91.7324 117.712 92.0501 118.003 92.2983L120.713 94.61C121.463 95.2535 121.932 96.1647 122.02 97.1492L123.062 108.424C123.114 108.993 123.377 109.523 123.8 109.909C124.222 110.294 124.774 110.508 125.346 110.508C125.918 110.508 126.469 110.294 126.892 109.909C127.314 109.523 127.577 108.993 127.629 108.424L128.955 95.4817L133.067 93.0562C133.465 92.8297 133.784 92.4866 133.98 92.0732C134.177 91.6598 134.242 91.196 134.166 90.7445L131.798 75.1307C131.707 74.5955 131.428 74.1102 131.011 73.7627C130.594 73.4151 130.067 73.2283 129.524 73.2359L121.603 73.198Z" stroke="#1D1D1B" stroke-width="0.5" stroke-miterlimit="10"/>
<path d="M53.5205 98.0589C53.326 98.0541 53.1408 97.9747 53.0033 97.8372C52.8657 97.6996 52.7863 97.5144 52.7815 97.3199V77.8406C52.8099 77.6626 52.9009 77.5005 53.0381 77.3835C53.1752 77.2664 53.3497 77.2021 53.53 77.2021C53.7103 77.2021 53.8847 77.2664 54.0219 77.3835C54.1591 77.5005 54.25 77.6626 54.2784 77.8406V97.3199C54.2735 97.5176 54.1915 97.7056 54.0499 97.8437C53.9082 97.9817 53.7183 98.059 53.5205 98.0589Z" fill="#1D1D1B"/>
<path d="M53.5205 98.0589C53.326 98.0541 53.1408 97.9747 53.0033 97.8372C52.8657 97.6996 52.7863 97.5144 52.7815 97.3199V77.8406C52.8099 77.6626 52.9009 77.5005 53.0381 77.3835C53.1752 77.2664 53.3497 77.2021 53.53 77.2021C53.7103 77.2021 53.8847 77.2664 54.0219 77.3835C54.1591 77.5005 54.25 77.6626 54.2784 77.8406V97.3199C54.2735 97.5176 54.1915 97.7056 54.0499 97.8437C53.9082 97.9817 53.7183 98.059 53.5205 98.0589V98.0589Z" stroke="#1D1D1B" stroke-width="0.5" stroke-miterlimit="10"/>
<path d="M107.865 97.9638C107.664 97.9638 107.472 97.8839 107.329 97.7418C107.187 97.5996 107.107 97.4069 107.107 97.2058V77.7455C107.107 77.5445 107.187 77.3517 107.329 77.2095C107.472 77.0674 107.664 76.9875 107.865 76.9875C108.066 76.9875 108.259 77.0674 108.401 77.2095C108.543 77.3517 108.623 77.5445 108.623 77.7455V97.2058C108.623 97.4069 108.543 97.5996 108.401 97.7418C108.259 97.8839 108.066 97.9638 107.865 97.9638Z" fill="#1D1D1B"/>
<path d="M107.865 97.9638C107.664 97.9638 107.472 97.8839 107.329 97.7418C107.187 97.5996 107.107 97.4069 107.107 97.2058V77.7455C107.107 77.5445 107.187 77.3517 107.329 77.2095C107.472 77.0674 107.664 76.9875 107.865 76.9875C108.066 76.9875 108.259 77.0674 108.401 77.2095C108.543 77.3517 108.623 77.5445 108.623 77.7455V97.2058C108.623 97.4069 108.543 97.5996 108.401 97.7418C108.259 97.8839 108.066 97.9638 107.865 97.9638V97.9638Z" stroke="#1D1D1B" stroke-width="0.5" stroke-miterlimit="10"/>
<path d="M107.865 88.2052H53.5204C53.4217 88.2052 53.3241 88.1855 53.2331 88.1472C53.1422 88.1089 53.0599 88.0528 52.991 87.9821C52.9221 87.9115 52.8681 87.8277 52.8321 87.7359C52.7961 87.644 52.7789 87.5459 52.7814 87.4473C52.7788 87.3495 52.7961 87.2522 52.8323 87.1614C52.8685 87.0706 52.9229 86.9881 52.992 86.9189C53.0612 86.8498 53.1437 86.7954 53.2345 86.7592C53.3254 86.723 53.4226 86.7057 53.5204 86.7083H107.865C107.964 86.7057 108.062 86.723 108.154 86.759C108.246 86.795 108.33 86.849 108.4 86.9179C108.471 86.9868 108.527 87.0691 108.565 87.16C108.604 87.2509 108.623 87.3486 108.623 87.4473C108.623 87.6483 108.543 87.8411 108.401 87.9832C108.259 88.1254 108.066 88.2052 107.865 88.2052Z" fill="#1D1D1B"/>
<path d="M107.865 88.2052H53.5204C53.4217 88.2052 53.3241 88.1855 53.2331 88.1472C53.1422 88.1089 53.0599 88.0528 52.991 87.9821C52.9221 87.9115 52.8681 87.8277 52.8321 87.7359C52.7961 87.644 52.7789 87.5459 52.7814 87.4473C52.7788 87.3495 52.7961 87.2522 52.8323 87.1614C52.8685 87.0706 52.9229 86.9881 52.992 86.9189C53.0612 86.8498 53.1437 86.7954 53.2345 86.7592C53.3254 86.723 53.4226 86.7057 53.5204 86.7083H107.865C107.964 86.7057 108.062 86.723 108.154 86.759C108.246 86.795 108.33 86.849 108.4 86.9179C108.471 86.9868 108.527 87.0691 108.565 87.16C108.604 87.2509 108.623 87.3486 108.623 87.4473C108.623 87.6483 108.543 87.8411 108.401 87.9832C108.259 88.1254 108.066 88.2052 107.865 88.2052V88.2052Z" stroke="#1D1D1B" stroke-width="0.5" stroke-miterlimit="10"/>
<path d="M102.636 83.7528V91.1996C102.631 91.3641 102.676 91.5261 102.765 91.6644C102.855 91.8026 102.984 91.9107 103.135 91.9742C103.287 92.0378 103.454 92.054 103.616 92.0205C103.777 91.9871 103.924 91.9057 104.038 91.787L107.619 88.2057C107.767 88.0536 107.85 87.8496 107.85 87.6373C107.85 87.4249 107.767 87.221 107.619 87.0688L104.038 83.2791C103.922 83.1644 103.776 83.0859 103.617 83.0535C103.457 83.021 103.292 83.0359 103.14 83.0963C102.989 83.1568 102.859 83.2601 102.766 83.3936C102.673 83.5271 102.621 83.6849 102.617 83.8475" fill="#1D1D1B"/>
<path d="M102.636 83.7527V91.1996C102.631 91.364 102.676 91.5261 102.765 91.6643C102.855 91.8026 102.983 91.9106 103.135 91.9742C103.287 92.0378 103.454 92.0539 103.616 92.0205C103.777 91.9871 103.924 91.9057 104.038 91.787L107.619 88.2057C107.767 88.0535 107.85 87.8496 107.85 87.6372C107.85 87.4249 107.767 87.2209 107.619 87.0688L104.038 83.279C103.928 83.1731 103.791 83.0995 103.642 83.0661C103.493 83.0327 103.337 83.0409 103.193 83.0898C103.048 83.1387 102.92 83.2264 102.821 83.3433C102.723 83.4602 102.659 83.6018 102.636 83.7527Z" stroke="#1D1D1B" stroke-width="0.5" stroke-miterlimit="10"/>
<path d="M59.243 83.7528V91.1996C59.2477 91.3641 59.2024 91.5261 59.1133 91.6644C59.0241 91.8026 58.8951 91.9107 58.7434 91.9742C58.5916 92.0378 58.4242 92.054 58.2631 92.0205C58.102 91.9871 57.9548 91.9057 57.8408 91.787L54.2595 88.2057C54.1114 88.0536 54.0284 87.8496 54.0284 87.6373C54.0284 87.4249 54.1114 87.221 54.2595 87.0688L57.8408 83.2791C57.9562 83.1644 58.1027 83.0859 58.2622 83.0535C58.4216 83.021 58.5871 83.0359 58.7382 83.0963C58.8893 83.1568 59.0194 83.2601 59.1125 83.3936C59.2055 83.5271 59.2575 83.6849 59.262 83.8475" fill="#1D1D1B"/>
<path d="M59.243 83.7527V91.1996C59.2477 91.364 59.2024 91.5261 59.1133 91.6643C59.0241 91.8026 58.8951 91.9106 58.7434 91.9742C58.5916 92.0378 58.4242 92.0539 58.2631 92.0205C58.102 91.9871 57.9548 91.9057 57.8408 91.787L54.2595 88.2057C54.1114 88.0535 54.0284 87.8496 54.0284 87.6372C54.0284 87.4249 54.1114 87.2209 54.2595 87.0688L57.8408 83.279C57.9508 83.1731 58.0878 83.0995 58.2368 83.0661C58.3859 83.0327 58.5412 83.0409 58.6859 83.0898C58.8305 83.1387 58.959 83.2264 59.0573 83.3433C59.1555 83.4602 59.2198 83.6018 59.243 83.7527V83.7527Z" stroke="#1D1D1B" stroke-width="0.5" stroke-miterlimit="10"/>
<g style="mix-blend-mode:overlay" opacity="0.35">
<g style="mix-blend-mode:overlay" opacity="0.35">
<g style="mix-blend-mode:overlay" opacity="0.35">
<g style="mix-blend-mode:overlay" opacity="0.35">
<path d="M66.3867 107.268C59.4831 101.682 53.7892 94.7494 49.6519 86.8918C45.5146 79.0342 43.0206 70.4164 42.3218 61.5636C41.166 45.6277 45.7895 26.9822 66.9552 13.017C112.603 -17.0925 169.051 10.0799 156.677 43.335C145.081 74.4867 137.179 165.422 66.3867 107.268Z" fill="#E6EEEB"/>
</g>
</g>
</g>
</g>
<g style="mix-blend-mode:overlay" opacity="0.35" clip-path="url(#clip0)">
<path d="M65.9416 107.25C52.109 95.8807 43.2031 79.3953 41.8767 61.5835C40.7398 45.6666 45.2875 27.0969 66.5101 13.0748C112.176 -17.0537 168.644 10.043 156.327 43.2033C144.579 74.4687 136.62 165.423 65.9416 107.25Z" fill="#E6EEEB"/>
</g>
<defs>
<clipPath id="clip0">
<rect width="116.345" height="126.199" fill="white" transform="translate(41.6873)"/>
</clipPath>
</defs>
</svg>
