<svg width="170" height="180" viewBox="0 0 170 180" fill="none" xmlns="http://www.w3.org/2000/svg">
<path d="M110.594 89.7816C110.267 89.7816 109.954 89.9114 109.723 90.1424C109.492 90.3733 109.362 90.6866 109.362 91.0133V98.5928L107.126 96.1294C106.95 95.9386 106.719 95.8057 106.466 95.7482C106.212 95.6907 105.947 95.7113 105.705 95.8073C105.458 95.8978 105.244 96.0632 105.095 96.2805C104.945 96.4979 104.867 96.7563 104.872 97.02V99.5781H62.4643V97.02C62.4685 96.7563 62.3905 96.4979 62.2411 96.2805C62.0917 96.0632 61.8783 95.8978 61.6306 95.8073C61.3888 95.7113 61.1237 95.6907 60.8701 95.7482C60.6164 95.8057 60.3861 95.9386 60.2094 96.1294L57.4808 99.0475V91.108C57.4759 90.7829 57.3446 90.4724 57.1146 90.2425C56.8847 90.0126 56.5743 89.8812 56.2491 89.8764C55.924 89.8812 55.6135 90.0126 55.3836 90.2425C55.1537 90.4724 55.0223 90.7829 55.0175 91.108V110.587C55.0224 110.911 55.1544 111.219 55.3848 111.446C55.6153 111.673 55.9257 111.8 56.2491 111.8C56.5725 111.8 56.883 111.673 57.1134 111.446C57.3439 111.219 57.4758 110.911 57.4808 110.587V102.629L60.2473 105.376C60.3623 105.503 60.5027 105.604 60.6595 105.673C60.8162 105.741 60.9857 105.776 61.1568 105.774C61.3274 105.773 61.4955 105.734 61.6495 105.661C61.8891 105.566 62.0948 105.402 62.24 105.189C62.3853 104.976 62.4634 104.725 62.4643 104.467V101.966H104.872V104.467C104.872 104.725 104.951 104.976 105.096 105.189C105.241 105.402 105.447 105.566 105.686 105.661C105.84 105.736 106.008 105.775 106.179 105.774C106.35 105.776 106.52 105.741 106.676 105.673C106.833 105.604 106.974 105.503 107.089 105.376L109.362 103.122V110.474C109.362 110.8 109.492 111.114 109.723 111.345C109.954 111.576 110.267 111.705 110.594 111.705C110.921 111.705 111.234 111.576 111.465 111.345C111.696 111.114 111.826 110.8 111.826 110.474V91.0133C111.826 90.6866 111.696 90.3733 111.465 90.1424C111.234 89.9114 110.921 89.7816 110.594 89.7816Z" fill="#1D1D1B"/>
<g style="mix-blend-mode:multiply">
<g style="mix-blend-mode:multiply">
<g style="mix-blend-mode:multiply">
<g style="mix-blend-mode:multiply">
<path d="M1.96101 116.955C-0.560452 105.124 -0.651298 92.9051 1.69398 81.0386C4.03926 69.1722 8.77174 57.9061 15.6041 47.9245C28.0723 30.0559 48.9159 14.3095 83.4405 17.6065C157.568 24.826 194.101 101.947 152.584 126.486C113.38 149.603 27.106 239.155 1.96101 116.955Z" fill="#EEF4DA"/>
</g>
</g>
</g>
</g>
<g style="mix-blend-mode:overlay" opacity="0.35">
<g style="mix-blend-mode:overlay" opacity="0.35">
<g style="mix-blend-mode:overlay" opacity="0.35">
<g style="mix-blend-mode:overlay" opacity="0.35">
<path d="M66.3867 120.536C59.4831 114.95 53.7892 108.017 49.6519 100.16C45.5146 92.3019 43.0206 83.6841 42.3218 74.8314C41.166 58.8955 45.7895 40.25 66.9552 26.2848C112.603 -3.82477 169.051 23.3288 156.677 56.6027C145.081 87.7544 137.179 178.689 66.3867 120.536Z" fill="#E6EEEB"/>
</g>
</g>
</g>
</g>
<g style="mix-blend-mode:overlay" opacity="0.35" clip-path="url(#clip0)">
<path d="M143.125 20.0968C122.669 -3.69623 94.5915 -8.77824 71.9291 17.5558C49.0661 43.8898 41.6457 95.6339 58.2915 117.348C74.9374 139.062 134.702 133.287 151.949 107.646C162.178 92.6309 163.782 43.6588 143.125 20.0968Z" fill="#F7E6DD"/>
</g>
<path d="M52.4214 102.553H13.8418V119.759C13.8418 120.082 13.9689 120.393 14.1958 120.623C14.4227 120.854 14.7312 120.986 15.0545 120.991C15.3346 120.985 15.6124 121.042 15.868 121.156C16.1235 121.271 16.3505 121.441 16.5325 121.654C17.3448 122.457 18.441 122.907 19.5833 122.907C20.7255 122.907 21.8217 122.457 22.634 121.654C22.814 121.443 23.0379 121.275 23.29 121.16C23.542 121.046 23.8162 120.988 24.0931 120.991C24.3731 120.985 24.6509 121.042 24.9065 121.156C25.1621 121.271 25.389 121.441 25.5711 121.654C26.3801 122.456 27.4732 122.906 28.6123 122.906C29.7515 122.906 30.8445 122.456 31.6536 121.654C31.8356 121.441 32.0626 121.271 32.3182 121.156C32.5737 121.042 32.8515 120.985 33.1316 120.991C33.4085 120.988 33.6826 121.046 33.9347 121.16C34.1868 121.275 34.4107 121.443 34.5907 121.654C35.4029 122.457 36.4991 122.907 37.6414 122.907C38.7837 122.907 39.8798 122.457 40.6921 121.654C40.8698 121.436 41.0938 121.26 41.3478 121.14C41.6018 121.019 41.8795 120.956 42.1607 120.956C42.4419 120.956 42.7195 121.019 42.9735 121.14C43.2275 121.26 43.4515 121.436 43.6292 121.654C44.4415 122.457 45.5377 122.907 46.6799 122.907C47.8222 122.907 48.9184 122.457 49.7307 121.654C49.9147 121.438 50.1448 121.267 50.4038 121.152C50.6629 121.037 50.9444 120.982 51.2276 120.991C51.5543 120.991 51.8676 120.861 52.0986 120.63C52.3295 120.399 52.4593 120.086 52.4593 119.759V102.553H52.4214ZM48.139 119.778C47.959 119.988 47.7351 120.157 47.483 120.271C47.231 120.386 46.9568 120.444 46.6799 120.441C46.3999 120.447 46.1221 120.39 45.8665 120.275C45.6109 120.161 45.384 119.991 45.2019 119.778C44.8026 119.376 44.3269 119.059 43.803 118.844C43.279 118.629 42.7174 118.522 42.1512 118.527C41.0089 118.524 39.9121 118.974 39.1005 119.778C38.9205 119.988 38.6966 120.157 38.4445 120.271C38.1924 120.386 37.9183 120.444 37.6414 120.441C37.3645 120.444 37.0904 120.386 36.8383 120.271C36.5862 120.157 36.3623 119.988 36.1823 119.778C35.37 118.975 34.2739 118.524 33.1316 118.524C31.9893 118.524 30.8932 118.975 30.0809 119.778C29.9032 119.996 29.6792 120.171 29.4252 120.292C29.1712 120.413 28.8935 120.475 28.6123 120.475C28.3311 120.475 28.0535 120.413 27.7995 120.292C27.5455 120.171 27.3215 119.996 27.1438 119.778C26.3315 118.975 25.2353 118.524 24.0931 118.524C22.9508 118.524 21.8546 118.975 21.0423 119.778C20.8623 119.988 20.6384 120.157 20.3864 120.271C20.1343 120.386 19.8601 120.444 19.5833 120.441C19.3032 120.447 19.0254 120.39 18.7698 120.275C18.5142 120.161 18.2873 119.991 18.1053 119.778C17.5652 119.281 16.9162 118.918 16.2104 118.717V104.998H49.977V118.717C49.2725 118.921 48.6243 119.284 48.0821 119.778" fill="#1D1D1B"/>
<path d="M32.9611 85.5945C34.506 85.5983 36.0172 85.1436 37.3036 84.288C38.5899 83.4325 39.5935 82.2145 40.1873 80.7883C40.781 79.3622 40.9383 77.7919 40.6393 76.2762C40.3402 74.7606 39.5981 73.3678 38.5071 72.2741C37.416 71.1804 36.025 70.4349 34.5101 70.1322C32.9952 69.8294 31.4245 69.9829 29.9969 70.5732C28.5693 71.1635 27.3489 72.1642 26.4902 73.4484C25.6316 74.7326 25.1732 76.2428 25.1732 77.7876C25.1782 79.8533 25.9997 81.8333 27.4586 83.2957C28.9175 84.7582 30.8955 85.5845 32.9611 85.5945ZM32.9611 72.4441C34.018 72.4441 35.0511 72.7575 35.9299 73.3446C36.8086 73.9318 37.4935 74.7663 37.8979 75.7427C38.3024 76.7192 38.4082 77.7936 38.202 78.8301C37.9958 79.8666 37.4869 80.8188 36.7396 81.5661C35.9923 82.3134 35.0402 82.8223 34.0036 83.0285C32.9671 83.2347 31.8927 83.1289 30.9163 82.7244C29.9399 82.32 29.1053 81.6351 28.5182 80.7563C27.931 79.8776 27.6176 78.8445 27.6176 77.7876C27.6176 77.0859 27.7558 76.3911 28.0244 75.7427C28.2929 75.0944 28.6865 74.5054 29.1827 74.0092C29.6789 73.513 30.268 73.1194 30.9163 72.8508C31.5646 72.5823 32.2594 72.4441 32.9611 72.4441Z" fill="#1D1D1B"/>
<path d="M27.2575 89.8767C27.3344 89.4542 27.5525 89.0703 27.8761 88.788C28.1998 88.5057 28.6097 88.3417 29.0387 88.3229H36.9214C37.351 88.3366 37.7632 88.496 38.0904 88.7749C38.4175 89.0538 38.64 89.4357 38.7215 89.8578L40.9006 104.069H43.3829L41.1469 89.4788C40.9927 88.4695 40.4813 87.5491 39.7059 86.8849C38.9304 86.2208 37.9424 85.8569 36.9214 85.8596H29.0387C28.0103 85.8629 27.0175 86.2361 26.2417 86.9111C25.4658 87.586 24.9587 88.5176 24.8131 89.5356L22.8046 104.069H25.2679L27.2575 89.8767Z" fill="#1D1D1B"/>
<path d="M153.001 102.553H114.422V119.759C114.422 120.086 114.551 120.399 114.782 120.63C115.013 120.861 115.327 120.991 115.653 120.991C115.93 120.988 116.204 121.046 116.456 121.16C116.708 121.275 116.932 121.443 117.112 121.654C117.925 122.457 119.021 122.907 120.163 122.907C121.305 122.907 122.402 122.457 123.214 121.654C123.392 121.436 123.616 121.26 123.87 121.14C124.124 121.019 124.401 120.956 124.682 120.956C124.964 120.956 125.241 121.019 125.495 121.14C125.749 121.26 125.973 121.436 126.151 121.654C126.963 122.457 128.059 122.907 129.202 122.907C130.344 122.907 131.44 122.457 132.252 121.654C132.43 121.439 132.653 121.266 132.905 121.148C133.158 121.029 133.433 120.968 133.711 120.968C133.99 120.968 134.265 121.029 134.518 121.148C134.77 121.266 134.993 121.439 135.17 121.654C135.982 122.458 137.079 122.907 138.221 122.904C138.787 122.91 139.349 122.802 139.873 122.587C140.397 122.373 140.873 122.055 141.272 121.654C141.454 121.441 141.681 121.271 141.937 121.156C142.192 121.042 142.47 120.985 142.75 120.991C143.027 120.988 143.301 121.046 143.553 121.16C143.805 121.275 144.029 121.443 144.209 121.654C145.021 122.457 146.118 122.907 147.26 122.907C148.402 122.907 149.498 122.457 150.311 121.654C150.493 121.441 150.72 121.271 150.975 121.156C151.231 121.042 151.508 120.985 151.789 120.991C152.112 120.986 152.42 120.854 152.647 120.623C152.874 120.393 153.001 120.082 153.001 119.759V102.553ZM148.738 119.778C148.556 119.991 148.329 120.161 148.073 120.275C147.818 120.39 147.54 120.447 147.26 120.441C146.983 120.444 146.709 120.386 146.457 120.271C146.205 120.157 145.981 119.988 145.801 119.778C144.988 118.975 143.892 118.524 142.75 118.524C141.608 118.524 140.512 118.975 139.699 119.778C139.522 119.996 139.298 120.171 139.044 120.292C138.79 120.413 138.512 120.475 138.231 120.475C137.95 120.475 137.672 120.413 137.418 120.292C137.164 120.171 136.94 119.996 136.762 119.778C135.95 118.975 134.854 118.524 133.711 118.524C132.569 118.524 131.473 118.975 130.661 119.778C130.481 119.988 130.257 120.157 130.005 120.271C129.753 120.386 129.479 120.444 129.202 120.441C128.922 120.447 128.644 120.39 128.388 120.275C128.133 120.161 127.906 119.991 127.724 119.778C127.324 119.376 126.849 119.059 126.325 118.844C125.801 118.629 125.239 118.522 124.673 118.527C123.531 118.524 122.434 118.974 121.622 119.778C121.444 119.992 121.221 120.165 120.969 120.284C120.717 120.402 120.442 120.464 120.163 120.464C119.884 120.464 119.609 120.402 119.357 120.284C119.105 120.165 118.882 119.992 118.704 119.778C118.162 119.284 117.514 118.921 116.809 118.717V104.998H150.557V118.717C149.851 118.918 149.202 119.281 148.662 119.778" fill="#1D1D1B"/>
<path d="M133.541 85.5945C135.086 85.5983 136.597 85.1436 137.883 84.288C139.17 83.4325 140.173 82.2145 140.767 80.7883C141.361 79.3622 141.518 77.7919 141.219 76.2762C140.92 74.7606 140.178 73.3678 139.087 72.2741C137.996 71.1804 136.605 70.4349 135.09 70.1322C133.575 69.8294 132.004 69.9829 130.577 70.5732C129.149 71.1635 127.929 72.1642 127.07 73.4484C126.211 74.7326 125.753 76.2428 125.753 77.7876C125.758 79.8533 126.58 81.8333 128.038 83.2957C129.497 84.7582 131.475 85.5845 133.541 85.5945ZM133.541 72.4441C134.599 72.4403 135.634 72.7505 136.515 73.3354C137.396 73.9203 138.084 74.7535 138.491 75.7296C138.899 76.7057 139.007 77.7806 138.803 78.8184C138.599 79.8562 138.092 80.8101 137.345 81.5593C136.599 82.3085 135.646 82.8193 134.609 83.0271C133.572 83.2348 132.497 83.1301 131.519 82.7262C130.542 82.3223 129.706 81.6374 129.118 80.7583C128.53 79.8792 128.216 78.8453 128.216 77.7876C128.216 76.3737 128.777 75.0174 129.775 74.0159C130.773 73.0143 132.127 72.4491 133.541 72.4441Z" fill="#1D1D1B"/>
<path d="M127.837 89.8767C127.914 89.4542 128.132 89.0703 128.456 88.788C128.78 88.5057 129.19 88.3417 129.619 88.3229H137.501C137.947 88.3148 138.382 88.4643 138.728 88.745C139.075 89.0258 139.311 89.4198 139.396 89.8578L141.575 104.069H144.057L141.822 89.4788C141.667 88.4695 141.156 87.5491 140.38 86.8849C139.605 86.2208 138.617 85.8569 137.596 85.8596H129.619C128.592 85.8706 127.604 86.2466 126.829 86.9201C126.055 87.5937 125.546 88.5209 125.393 89.5356L123.365 104.069H125.848L127.837 89.8767Z" fill="#1D1D1B"/>
<defs>
<clipPath id="clip0">
<rect width="109.903" height="130.746" fill="white" transform="translate(49.2667)"/>
</clipPath>
</defs>
</svg>
