<svg width="170" height="167" viewBox="0 0 170 167" fill="none" xmlns="http://www.w3.org/2000/svg">
<g style="mix-blend-mode:multiply">
<g style="mix-blend-mode:multiply">
<g style="mix-blend-mode:multiply">
<g style="mix-blend-mode:multiply">
<path d="M1.96207 103.729C-0.560757 91.892 -0.651653 79.666 1.6949 67.7931C4.04146 55.9202 8.77652 44.648 15.6126 34.6609C28.0876 16.7826 48.9426 0.989689 83.4859 4.32648C157.559 11.5499 194.112 88.7132 152.573 113.265C113.441 136.49 27.1207 225.996 1.96207 103.729Z" fill="#E3F1FC"/>
</g>
</g>
</g>
</g>
<g style="mix-blend-mode:multiply">
<g style="mix-blend-mode:multiply">
<g style="mix-blend-mode:multiply">
<g style="mix-blend-mode:multiply">
<path d="M66.4228 107.331C59.5257 101.736 53.8381 94.7971 49.7055 86.936C45.5728 79.0749 43.0815 70.4557 42.3827 61.602C41.2262 45.6385 45.8522 27.0018 67.0295 13.01C112.721 -17.078 169.2 10.0713 156.819 43.2497C145.16 74.5131 137.254 165.517 66.4228 107.331Z" fill="#ECF4FC"/>
</g>
</g>
</g>
</g>
<path d="M89.1736 84.8459C88.4303 84.1237 87.9304 83.1879 87.7435 82.1686C87.5567 81.1492 87.692 80.097 88.1309 79.1581C88.4853 78.2346 89.1636 77.4715 90.0391 77.011C90.9146 76.5506 91.9278 76.4242 92.8896 76.6556V75.6697C92.8896 72.6173 92.8896 69.5459 92.8896 66.4935C92.8275 65.8756 92.9034 65.2517 93.1121 64.6668C93.3207 64.0819 93.6567 63.5507 94.0958 63.1116C94.5349 62.6725 95.0661 62.3365 95.651 62.1279C96.2359 61.9193 96.8598 61.8433 97.4777 61.9054C102.774 61.9054 108.057 61.9054 113.327 61.9054C113.952 61.8429 114.583 61.9203 115.174 62.1319C115.765 62.3435 116.301 62.6841 116.744 63.1288C117.187 63.5736 117.525 64.1114 117.734 64.7032C117.944 65.2951 118.018 65.9261 117.953 66.5504V77.5277C120.778 77.831 122.276 79.9544 123.982 81.7366C124.817 82.6087 125.499 83.6325 126.257 84.5236C128.737 87.5759 130.336 91.2467 130.883 95.1406C131.313 97.5764 131.117 100.081 130.315 102.421C129.579 104.097 128.474 105.585 127.082 106.774C125.69 107.962 124.047 108.821 122.276 109.284C121.378 109.565 120.624 110.184 120.172 111.009C119.474 112.252 118.463 113.289 117.238 114.018C116.014 114.747 114.619 115.141 113.195 115.161C111.035 115.201 108.893 114.758 106.925 113.866C104.957 112.974 103.213 111.655 101.819 110.005C100.947 109.113 100.189 108.109 99.3357 107.274C99.0852 107.024 98.7583 106.863 98.4067 106.819C97.1029 106.978 95.7816 106.74 94.6148 106.137C94.5431 106.106 94.4656 106.089 94.3873 106.089C94.309 106.089 94.2316 106.106 94.1598 106.137C93.6026 106.574 92.915 106.811 92.207 106.811C91.4991 106.811 90.8115 106.574 90.2543 106.137C89.6333 105.691 89.1508 105.079 88.8624 104.372C88.5739 103.664 88.4912 102.889 88.6238 102.137C88.7971 101.346 89.0381 100.572 89.3442 99.8235C86.9933 96.9228 86.8985 95.1975 88.984 92.2399C87.0881 89.4339 87.0881 87.557 88.984 84.8838L89.1736 84.8459ZM115.716 88.96L115.147 89.0548C114.244 89.3746 113.285 89.5109 112.328 89.4555C111.371 89.4002 110.434 89.1544 109.574 88.7325C108.434 88.286 107.432 87.5486 106.667 86.5938C105.902 85.6391 105.4 84.5003 105.213 83.2912C105.128 83.0024 105.114 82.6976 105.171 82.4021C105.227 82.1066 105.353 81.8287 105.539 81.5916C105.724 81.3545 105.963 81.1649 106.236 81.0384C106.509 80.912 106.808 80.8524 107.109 80.8645C109.849 80.7597 112.542 80.1155 115.034 78.9686C115.257 78.8988 115.449 78.7518 115.574 78.5538C115.699 78.3558 115.749 78.1197 115.716 77.8879C115.716 74.0961 115.716 70.3043 115.716 66.6452C115.716 64.882 114.939 64.0857 113.157 64.0857C107.924 64.0857 102.691 64.0857 97.4587 64.0857C95.5628 64.0857 94.7855 64.8251 94.7855 66.7779C94.7855 72.8448 94.7855 78.8927 94.7855 84.9596C94.8079 85.4917 94.9368 86.0139 95.1647 86.4953C95.6077 87.3155 95.827 88.238 95.8004 89.1699C95.7737 90.1018 95.5022 91.0102 95.013 91.8038C94.8396 92.3205 94.8396 92.8797 95.013 93.3964C95.013 93.8324 95.449 94.2116 95.5249 94.6477C95.6007 95.0837 96.0178 95.4629 96.6624 95.4629H114.844H115.716C115.716 95.1785 115.716 94.951 115.716 94.7235C115.716 92.8276 115.716 91.0265 115.716 89.0358V88.96ZM101.857 106.914L101.743 107.161C102.464 107.881 103.165 108.639 103.905 109.341C105.627 110.991 107.731 112.189 110.029 112.829C111.599 113.414 113.327 113.413 114.897 112.828C116.467 112.244 117.774 111.113 118.579 109.644C118.784 109.08 119.136 108.582 119.6 108.202C120.064 107.821 120.621 107.573 121.214 107.483C121.436 107.427 121.651 107.351 121.859 107.255C123.874 106.672 125.624 105.408 126.813 103.68C128.002 101.952 128.556 99.8661 128.381 97.7759C128.515 93.2133 127.024 88.7514 124.172 85.1871C122.636 83.4618 121.025 81.8124 119.413 80.163C119.2 79.9314 118.911 79.7833 118.598 79.7451C118.286 79.7069 117.97 79.7811 117.707 79.9544C116.107 80.766 114.447 81.4506 112.74 82.002C111.033 82.5139 109.251 82.7414 107.279 83.1395C107.629 83.8673 108.048 84.5593 108.531 85.2061C109.226 86.1328 110.196 86.8155 111.303 87.1561C112.41 87.4968 113.597 87.4778 114.692 87.102C115.194 86.8549 115.756 86.7562 116.312 86.8174C116.868 86.8787 117.395 87.0974 117.831 87.4478C118.267 87.7982 118.594 88.2658 118.774 88.7956C118.953 89.3255 118.978 89.8955 118.845 90.4388C118.702 91.2518 118.512 92.0558 118.276 92.8466C118.111 93.3827 118.009 93.9363 117.972 94.496C117.972 97.1882 117.972 99.8804 117.972 102.573C118.003 103.152 117.911 103.73 117.702 104.271C117.493 104.812 117.172 105.302 116.76 105.711C116.349 106.119 115.855 106.435 115.313 106.639C114.77 106.844 114.19 106.931 113.612 106.895H102.047L101.857 106.914ZM115.906 97.4157H114.882C109.194 97.4157 103.507 97.4157 97.8189 97.4157C96.6245 97.4157 95.6955 97.4157 95.2595 98.8187C95.1078 99.3495 94.9182 99.6908 95.2595 100.203C95.5791 100.662 95.8042 101.18 95.9213 101.727C96.0385 102.273 96.0455 102.838 95.942 103.388C95.7903 104.506 95.942 104.734 97.0985 104.734H113.745C114.018 104.752 114.293 104.714 114.552 104.621C114.81 104.528 115.046 104.382 115.246 104.193C115.445 104.005 115.603 103.777 115.71 103.524C115.818 103.271 115.871 102.999 115.868 102.724C115.868 101.018 115.868 99.3116 115.868 97.4347L115.906 97.4157ZM89.6665 95.9559C89.7565 96.3811 89.8768 96.7992 90.0268 97.2072C90.1832 97.6759 90.5165 98.065 90.9556 98.2917C91.3947 98.5183 91.905 98.5645 92.3777 98.4205C92.8546 98.3238 93.276 98.0475 93.5548 97.6487C93.8336 97.2499 93.9484 96.7592 93.8754 96.2782C93.7983 95.6611 93.6256 95.0599 93.3636 94.496C93.2524 94.1379 93.0275 93.8257 92.7231 93.6067C92.4186 93.3878 92.0511 93.274 91.6762 93.2826C91.2604 93.3187 90.8665 93.4846 90.5501 93.7567C90.2337 94.0289 90.0108 94.3936 89.913 94.7994C89.8031 95.1784 89.7207 95.5649 89.6665 95.9559ZM89.6665 88.3722C89.7061 88.7162 89.763 89.0579 89.8372 89.396C89.9515 89.9471 90.2782 90.431 90.7465 90.7432C91.2148 91.0554 91.7871 91.1708 92.3398 91.0644C92.612 91.0078 92.8696 90.8952 93.0961 90.7338C93.3227 90.5725 93.5132 90.3659 93.6558 90.1271C93.7984 89.8883 93.8898 89.6225 93.9244 89.3466C93.9589 89.0706 93.9358 88.7905 93.8565 88.5239C93.74 87.9376 93.515 87.3781 93.1929 86.8745C93.0552 86.5721 92.8303 86.3177 92.547 86.1439C92.2637 85.9701 91.935 85.8849 91.603 85.8992C91.271 85.9134 90.9508 86.0265 90.6835 86.2239C90.4162 86.4213 90.2139 86.6941 90.1026 87.0072C89.9109 87.4461 89.7648 87.9035 89.6665 88.3722ZM92.8517 81.2247C92.8517 80.8076 92.8517 80.3715 92.8517 79.9355C92.8517 79.4994 93.0792 78.8358 92.4156 78.7221C91.8475 78.6178 91.2609 78.7045 90.7472 78.9686C90.4218 79.2353 90.1597 79.5709 89.9797 79.9512C89.7997 80.3315 89.7063 80.7471 89.7063 81.1678C89.7063 81.5886 89.7997 82.0041 89.9797 82.3844C90.1597 82.7647 90.4218 83.1003 90.7472 83.3671C91.1565 83.6032 91.6208 83.7274 92.0933 83.7273C92.2082 83.7423 92.3251 83.7293 92.434 83.6895C92.5428 83.6497 92.6405 83.5843 92.7187 83.4987C92.7968 83.4131 92.8532 83.3099 92.8829 83.1978C92.9127 83.0858 92.915 82.9683 92.8896 82.8552C92.8896 82.3053 92.8896 81.7745 92.8896 81.2247H92.8517ZM90.8041 102.592C90.8041 103.767 91.4866 104.696 92.3777 104.677C93.2688 104.658 93.9513 103.71 93.9323 102.592C93.9134 101.473 93.2119 100.563 92.3966 100.544C91.5814 100.525 90.823 101.435 90.8041 102.592Z" fill="#1D1D1B"/>
<path d="M98.4257 68.2381V65.8303C98.4201 65.7517 98.4314 65.6727 98.459 65.5989C98.4865 65.525 98.5296 65.4579 98.5853 65.4022C98.6411 65.3464 98.7082 65.3033 98.782 65.2758C98.8559 65.2483 98.9348 65.2369 99.0135 65.2426H103.677C103.754 65.2372 103.832 65.2481 103.904 65.2745C103.976 65.3009 104.043 65.3423 104.098 65.3959C104.153 65.4496 104.197 65.5143 104.226 65.5859C104.255 65.6574 104.268 65.7342 104.265 65.8113V70.4753C104.274 70.5965 104.242 70.7172 104.173 70.8173C104.104 70.9173 104.003 70.9907 103.886 71.0251C103.818 71.0427 103.746 71.0427 103.677 71.0251H99.0135C98.9365 71.0304 98.8593 71.0196 98.7868 70.9931C98.7143 70.9667 98.6482 70.9253 98.5928 70.8717C98.5374 70.818 98.4939 70.7533 98.4651 70.6818C98.4363 70.6102 98.4229 70.5334 98.4257 70.4563V68.2381ZM99.5064 68.2381V69.5273C99.5037 69.6002 99.5161 69.6729 99.5428 69.7408C99.5695 69.8087 99.6099 69.8704 99.6615 69.922C99.7131 69.9736 99.7748 70.014 99.8427 70.0407C99.9106 70.0674 99.9833 70.0798 100.056 70.0771H102.635C102.708 70.0828 102.782 70.0725 102.852 70.0469C102.921 70.0213 102.984 69.9809 103.036 69.9287C103.088 69.8765 103.129 69.8135 103.154 69.7443C103.18 69.675 103.19 69.601 103.184 69.5273C103.184 68.6552 103.184 67.802 103.184 66.9489C103.206 66.8489 103.206 66.7455 103.184 66.6455C103.137 66.5431 103.058 66.4584 102.959 66.4038C102.86 66.3493 102.747 66.3277 102.635 66.3422H100.075C99.999 66.3365 99.9225 66.3473 99.851 66.3739C99.7794 66.4005 99.7144 66.4422 99.6604 66.4962C99.6064 66.5502 99.5647 66.6152 99.5381 66.6868C99.5116 66.7583 99.5007 66.8348 99.5064 66.911V68.2381Z" fill="#1D1D1B"/>
<path d="M101.345 73.5459C102.123 73.5459 102.9 73.5459 103.696 73.5459C103.77 73.5459 103.843 73.5607 103.911 73.5895C103.979 73.6183 104.041 73.6605 104.092 73.7136C104.143 73.7667 104.183 73.8295 104.21 73.8984C104.236 73.9673 104.249 74.0409 104.246 74.1147C104.246 75.6693 104.246 77.224 104.246 78.7596C104.263 78.8921 104.23 79.0262 104.153 79.1351C104.075 79.2441 103.96 79.3199 103.829 79.3474H98.9756C98.8298 79.3474 98.6899 79.2894 98.5868 79.1863C98.4837 79.0832 98.4258 78.9434 98.4258 78.7976V74.1147C98.4258 73.9638 98.4857 73.8192 98.5924 73.7125C98.699 73.6058 98.8437 73.5459 98.9946 73.5459C99.7908 73.5459 100.568 73.5459 101.345 73.5459ZM101.345 74.6266H99.9994C99.8686 74.6266 99.7433 74.6785 99.6508 74.7709C99.5584 74.8634 99.5064 74.9888 99.5064 75.1195C99.5064 76.0043 99.5064 76.8953 99.5064 77.7927C99.5112 77.927 99.5666 78.0545 99.6616 78.1495C99.7566 78.2445 99.8841 78.2999 100.018 78.3046H102.692C102.753 78.3225 102.819 78.3225 102.881 78.3046C102.977 78.2594 103.057 78.1864 103.111 78.0952C103.165 78.0039 103.191 77.8986 103.184 77.7927C103.184 76.9775 103.184 76.1812 103.184 75.366C103.193 75.2777 103.193 75.1888 103.184 75.1005C103.167 74.9865 103.11 74.8824 103.023 74.8061C102.936 74.7299 102.826 74.6865 102.711 74.6834H101.364" fill="#1D1D1B"/>
<path d="M112.55 68.2372V70.5692C112.556 70.6453 112.545 70.7218 112.518 70.7934C112.492 70.865 112.45 70.93 112.396 70.984C112.342 71.0379 112.277 71.0797 112.205 71.1062C112.134 71.1328 112.057 71.1436 111.981 71.138H107.317C107.228 71.1417 107.138 71.1249 107.056 71.0887C106.974 71.0526 106.901 70.9981 106.843 70.9294C106.814 70.8369 106.814 70.7376 106.843 70.645V65.7347C106.851 65.6177 106.898 65.5068 106.978 65.4205C107.057 65.3342 107.163 65.2778 107.279 65.2607H111.924C112.057 65.258 112.187 65.3021 112.291 65.3852C112.395 65.4683 112.467 65.5853 112.493 65.7157V68.2372H112.55ZM111.431 68.2372V66.9291C111.432 66.7865 111.376 66.6494 111.277 66.5468C111.178 66.4443 111.043 66.3842 110.901 66.3793H108.341C108.25 66.3762 108.16 66.3974 108.08 66.4408C108 66.4841 107.933 66.5479 107.886 66.6257C107.85 66.743 107.85 66.8686 107.886 66.9859V67.9339C107.886 68.4648 107.886 68.9956 107.886 69.5075C107.883 69.5829 107.896 69.6581 107.924 69.7283C107.952 69.7985 107.993 69.8622 108.047 69.9156C108.1 69.9689 108.164 70.0107 108.234 70.0384C108.304 70.066 108.379 70.0789 108.455 70.0763H111.033C111.178 70.0715 111.315 70.0121 111.417 69.91C111.519 69.8079 111.578 69.6708 111.583 69.5265C111.583 69.0904 111.583 68.6733 111.583 68.2372" fill="#1D1D1B"/>
<path d="M109.574 72.8261V73.319C109.587 73.3876 109.626 73.4487 109.682 73.4907C109.738 73.5327 109.807 73.5525 109.877 73.5465H112.057C112.185 73.5632 112.304 73.623 112.394 73.716C112.483 73.809 112.538 73.9298 112.55 74.0584C112.556 74.1852 112.515 74.3097 112.434 74.4078C112.354 74.5059 112.24 74.5706 112.114 74.5892C111.957 74.6091 111.798 74.6091 111.64 74.5892C111.603 74.5867 111.565 74.5915 111.53 74.6035C111.494 74.6154 111.462 74.6343 111.433 74.6589C111.405 74.6836 111.382 74.7136 111.366 74.7472C111.349 74.7808 111.339 74.8173 111.337 74.8547C111.326 74.9555 111.326 75.0572 111.337 75.158C111.356 75.201 111.389 75.2369 111.429 75.2607C111.47 75.2844 111.517 75.2949 111.564 75.2907H112.076C112.217 75.3058 112.346 75.3762 112.435 75.4864C112.524 75.5967 112.565 75.7377 112.55 75.8785C112.535 76.0193 112.465 76.1483 112.354 76.2372C112.244 76.3261 112.103 76.3675 111.962 76.3524H111.621C111.58 76.3498 111.538 76.3558 111.499 76.3699C111.46 76.3839 111.425 76.4059 111.394 76.4343C111.364 76.4627 111.34 76.4971 111.324 76.5351C111.307 76.5732 111.299 76.6143 111.299 76.6558V77.964C111.296 78.0045 111.302 78.0452 111.316 78.0833C111.331 78.1214 111.353 78.1559 111.382 78.1847C111.41 78.2134 111.445 78.2357 111.483 78.2499C111.521 78.2642 111.562 78.2701 111.602 78.2673H112.076C112.189 78.2836 112.294 78.3373 112.373 78.4197C112.452 78.5022 112.501 78.6087 112.512 78.7223C112.525 78.7982 112.519 78.8759 112.496 78.9492C112.473 79.0226 112.434 79.0896 112.38 79.1449C112.327 79.2001 112.261 79.2421 112.189 79.2675C112.116 79.2929 112.039 79.301 111.962 79.2911H109.043C108.91 79.2964 108.781 79.2499 108.682 79.1614C108.582 79.073 108.522 78.9495 108.512 78.8171C108.501 78.6872 108.54 78.5579 108.621 78.4557C108.702 78.3536 108.819 78.2862 108.948 78.2673H109.46C109.636 78.2483 109.814 78.2483 109.991 78.2673C110.199 78.2673 110.275 78.1346 110.294 77.964V76.6368C110.294 76.4472 110.161 76.3524 109.972 76.3524H109.744C109.693 76.3691 109.648 76.4022 109.617 76.4468C109.586 76.4913 109.571 76.5448 109.574 76.5989V77.0539C109.574 77.1947 109.518 77.3297 109.418 77.4293C109.319 77.5288 109.184 77.5848 109.043 77.5848C108.971 77.5848 108.901 77.5705 108.835 77.5426C108.769 77.5148 108.71 77.474 108.661 77.4227C108.611 77.3713 108.572 77.3106 108.547 77.2439C108.521 77.1773 108.509 77.1063 108.512 77.035V75.8216C108.501 75.7126 108.527 75.6031 108.585 75.5104C108.644 75.4177 108.731 75.3471 108.834 75.3097C108.915 75.2917 109 75.2917 109.081 75.3097H110.029C110.199 75.3097 110.275 75.3097 110.313 75.1011C110.351 74.9905 110.351 74.8705 110.313 74.7599C110.292 74.7163 110.26 74.6792 110.22 74.6525C110.18 74.6258 110.134 74.6105 110.086 74.6082H109.138C109.026 74.617 108.915 74.5906 108.82 74.5328C108.725 74.4749 108.65 74.3886 108.607 74.2859C108.598 74.2103 108.598 74.134 108.607 74.0584V72.3331C108.604 72.2593 108.617 72.1858 108.643 72.1169C108.669 72.048 108.71 71.9851 108.761 71.932C108.812 71.879 108.874 71.8368 108.942 71.8079C109.01 71.7791 109.083 71.7643 109.157 71.7644H109.972C110.075 71.7565 110.179 71.7816 110.267 71.8361C110.356 71.8905 110.425 71.9716 110.465 72.0677C110.523 72.1509 110.555 72.2502 110.555 72.3521C110.555 72.4539 110.523 72.5533 110.465 72.6365C110.42 72.6943 110.362 72.7413 110.297 72.7741C110.231 72.8069 110.159 72.8247 110.086 72.8261H109.706" fill="#1D1D1B"/>
<path d="M105.744 71.7643H107.223C107.309 71.7609 107.396 71.7782 107.475 71.8147C107.554 71.8513 107.623 71.906 107.677 71.9745C107.73 72.043 107.767 72.1232 107.784 72.2086C107.8 72.294 107.796 72.3821 107.772 72.4658C107.736 72.565 107.672 72.6517 107.588 72.7156C107.504 72.7794 107.404 72.8178 107.298 72.826H106.237C106.197 72.8227 106.157 72.8284 106.119 72.8428C106.082 72.8572 106.049 72.8798 106.021 72.909C105.994 72.9381 105.973 72.9731 105.962 73.0113C105.95 73.0494 105.946 73.0898 105.952 73.1293V73.2431C105.949 73.2836 105.955 73.3243 105.97 73.3624C105.984 73.4005 106.006 73.4351 106.035 73.4638C106.064 73.4926 106.098 73.5148 106.136 73.5291C106.174 73.5433 106.215 73.5492 106.256 73.5464H107.204C107.271 73.5464 107.337 73.5597 107.399 73.5854C107.462 73.6111 107.518 73.6488 107.566 73.6964C107.613 73.7439 107.651 73.8003 107.677 73.8624C107.702 73.9245 107.715 73.9911 107.715 74.0583C107.727 74.1883 107.688 74.3175 107.606 74.4197C107.525 74.5219 107.408 74.5893 107.279 74.6081H105.384C105.311 74.6108 105.238 74.5984 105.17 74.5717C105.102 74.545 105.04 74.5046 104.989 74.453C104.937 74.4014 104.897 74.3397 104.87 74.2718C104.843 74.2039 104.831 74.1312 104.834 74.0583C104.834 73.736 104.834 73.4327 104.834 73.1104C104.837 73.0723 104.831 73.0341 104.818 72.9983C104.805 72.9625 104.784 72.93 104.757 72.903C104.73 72.876 104.697 72.8551 104.661 72.8419C104.626 72.8286 104.587 72.8231 104.549 72.826H104.094C103.972 72.8321 103.853 72.7928 103.758 72.7158C103.664 72.6388 103.601 72.5294 103.582 72.4089C103.566 72.3402 103.564 72.2689 103.576 72.1993C103.588 72.1298 103.615 72.0636 103.654 72.0048C103.693 71.946 103.744 71.896 103.804 71.8579C103.863 71.8198 103.93 71.7943 104 71.7832H105.611" fill="#1D1D1B"/>
<path d="M107.81 77.3378V78.7597C107.827 78.8949 107.791 79.0313 107.71 79.1407C107.629 79.2501 107.508 79.3241 107.374 79.3474C107.301 79.3641 107.226 79.3647 107.152 79.3489C107.079 79.3332 107.01 79.3017 106.951 79.2565C106.891 79.2113 106.842 79.1536 106.807 79.0874C106.772 79.0212 106.752 78.9482 106.749 78.8734C106.749 78.153 106.749 77.4515 106.749 76.7311C106.758 76.6682 106.758 76.6043 106.749 76.5415C106.725 76.4919 106.687 76.4507 106.64 76.4236C106.592 76.3964 106.538 76.3846 106.483 76.3898H105.535C105.401 76.3901 105.271 76.3394 105.173 76.248C105.074 76.1565 105.014 76.031 105.004 75.8969C104.991 75.775 105.022 75.6525 105.092 75.5516C105.162 75.4507 105.265 75.3781 105.384 75.3471H105.573H107.242C107.322 75.341 107.403 75.3528 107.478 75.3814C107.553 75.41 107.621 75.4549 107.677 75.5128C107.734 75.5707 107.776 75.6402 107.802 75.7164C107.829 75.7926 107.838 75.8736 107.829 75.9537C107.829 76.4277 107.829 76.9017 107.829 77.3757L107.81 77.3378Z" fill="#1D1D1B"/>
<path d="M101.763 72.8258H100.872C100.767 72.824 100.666 72.7904 100.581 72.7294C100.496 72.6684 100.432 72.5829 100.398 72.4845C100.362 72.3871 100.355 72.2813 100.379 72.1802C100.402 72.0791 100.455 71.9872 100.53 71.9157C100.583 71.8643 100.645 71.8243 100.713 71.7982C100.782 71.7721 100.855 71.7605 100.928 71.7641H102.616C102.717 71.7574 102.818 71.7808 102.905 71.8314C102.993 71.8821 103.064 71.9576 103.109 72.0484C103.172 72.1334 103.206 72.2365 103.206 72.3423C103.206 72.4482 103.172 72.5512 103.109 72.6362C103.067 72.6974 103.01 72.747 102.944 72.7801C102.877 72.8133 102.804 72.829 102.729 72.8258H101.819" fill="#1D1D1B"/>
<path d="M106.028 69.8111V70.5126C106.031 70.5839 106.019 70.655 105.993 70.7216C105.968 70.7882 105.929 70.849 105.88 70.9003C105.83 70.9516 105.771 70.9924 105.705 71.0203C105.639 71.0481 105.569 71.0625 105.497 71.0624C105.379 71.0654 105.264 71.0273 105.17 70.9548C105.077 70.8822 105.012 70.7796 104.986 70.6643C104.977 70.6014 104.977 70.5376 104.986 70.4747C104.986 70.0197 104.986 69.5647 104.986 69.0907C104.986 68.9684 105.027 68.8499 105.103 68.7537C105.179 68.6576 105.284 68.5894 105.403 68.5598C105.535 68.5353 105.672 68.5604 105.788 68.6303C105.903 68.7002 105.989 68.8101 106.028 68.939C106.028 68.939 106.028 69.0338 106.028 69.0907V69.8111Z" fill="#1D1D1B"/>
<path d="M106.028 78.2293V78.817C106.029 78.9123 106.005 79.006 105.958 79.0891C105.912 79.1722 105.844 79.2418 105.763 79.291C105.679 79.3375 105.584 79.3619 105.488 79.3619C105.392 79.3619 105.297 79.3375 105.213 79.291C105.138 79.2412 105.076 79.1737 105.033 79.0943C104.99 79.015 104.967 78.9263 104.967 78.836C104.967 78.4379 104.967 78.0208 104.967 77.6226C104.967 77.5513 104.981 77.4807 105.009 77.415C105.037 77.3493 105.077 77.2899 105.129 77.2404C105.18 77.1908 105.241 77.1521 105.307 77.1266C105.374 77.1011 105.445 77.0892 105.516 77.0918C105.652 77.1011 105.78 77.1606 105.875 77.2587C105.969 77.3567 106.024 77.4864 106.028 77.6226V78.2293Z" fill="#1D1D1B"/>
<path d="M99.165 72.8258H98.8616C98.7404 72.8025 98.631 72.7378 98.5524 72.6426C98.4737 72.5474 98.4307 72.4278 98.4307 72.3044C98.4307 72.1809 98.4737 72.0613 98.5524 71.9662C98.631 71.871 98.7404 71.8062 98.8616 71.783C99.0803 71.7353 99.3066 71.7353 99.5252 71.783C99.6409 71.8102 99.7421 71.8799 99.8088 71.9782C99.8755 72.0765 99.9029 72.1963 99.8854 72.3139C99.8805 72.4463 99.8244 72.5717 99.729 72.6636C99.6335 72.7556 99.5061 72.8069 99.3735 72.8068L99.165 72.8258Z" fill="#1D1D1B"/>
<path d="M111.811 72.8261C111.649 72.8705 111.479 72.8705 111.318 72.8261C111.231 72.7621 111.165 72.6741 111.128 72.573C111.091 72.4719 111.084 72.3621 111.109 72.2573C111.131 72.1567 111.182 72.065 111.256 71.9939C111.331 71.9229 111.425 71.876 111.526 71.8592H112.114C112.211 71.8771 112.3 71.9215 112.373 71.9874C112.446 72.0533 112.499 72.1382 112.527 72.2325C112.554 72.3268 112.555 72.427 112.529 72.5217C112.503 72.6165 112.451 72.7022 112.379 72.7692C112.329 72.8167 112.269 72.8531 112.204 72.876C112.139 72.8988 112.069 72.9077 112 72.9019H111.811" fill="#1D1D1B"/>
<path d="M106.028 65.8679C106.037 65.9702 106.019 66.0731 105.976 66.1662C105.933 66.2594 105.866 66.3395 105.782 66.3988C105.711 66.4479 105.628 66.4782 105.542 66.4868C105.456 66.4954 105.369 66.482 105.289 66.4479C105.21 66.4139 105.14 66.3602 105.087 66.2919C105.034 66.2236 104.999 66.143 104.986 66.0575C104.912 65.8751 104.912 65.6712 104.986 65.4887C105.037 65.4108 105.108 65.3472 105.191 65.3041C105.273 65.261 105.366 65.2397 105.459 65.2423C105.573 65.2497 105.681 65.2919 105.769 65.3632C105.857 65.4345 105.921 65.5313 105.952 65.6404C105.962 65.716 105.962 65.7924 105.952 65.8679" fill="#1D1D1B"/>
<path d="M106.028 67.536C106.044 67.6555 106.019 67.7769 105.957 67.8803C105.895 67.9837 105.8 68.0629 105.687 68.1048C105.617 68.1344 105.54 68.1478 105.464 68.1441C105.387 68.1403 105.313 68.1195 105.246 68.0831C105.178 68.0467 105.12 67.9957 105.075 67.9339C105.03 67.872 104.999 67.8009 104.986 67.7256C104.957 67.5817 104.957 67.4335 104.986 67.2896C105.017 67.171 105.089 67.0676 105.19 66.998C105.291 66.9284 105.414 66.8973 105.535 66.9104C105.671 66.9245 105.797 66.9886 105.888 67.0902C105.979 67.1919 106.029 67.3237 106.028 67.4602V67.536Z" fill="#1D1D1B"/>
<path d="M101.345 67.1759H101.801C101.938 67.1758 102.07 67.2291 102.169 67.3246C102.268 67.4201 102.326 67.5503 102.331 67.6878V68.6168C102.327 68.7561 102.269 68.8884 102.171 68.9869C102.072 69.0855 101.94 69.1429 101.801 69.1476H100.89C100.751 69.1429 100.619 69.0855 100.52 68.9869C100.422 68.8884 100.364 68.7561 100.36 68.6168V67.6688C100.369 67.5379 100.426 67.4151 100.521 67.3241C100.615 67.233 100.74 67.1803 100.872 67.1759H101.345Z" fill="#1D1D1B"/>
<path d="M100.359 76.4467V75.9916C100.358 75.868 100.401 75.7481 100.482 75.654C100.562 75.56 100.673 75.498 100.795 75.4797H101.895C102.016 75.5016 102.125 75.5645 102.205 75.6578C102.284 75.7511 102.329 75.8691 102.331 75.9916V76.8827C102.334 76.954 102.322 77.0251 102.296 77.0917C102.271 77.1583 102.232 77.2191 102.183 77.2704C102.133 77.3217 102.074 77.3625 102.008 77.3904C101.942 77.4182 101.872 77.4326 101.8 77.4325H100.814C100.693 77.4153 100.582 77.3568 100.499 77.267C100.416 77.1772 100.367 77.0616 100.359 76.9396V76.4467Z" fill="#1D1D1B"/>
<path d="M110.616 68.2381V68.6931C110.617 68.8307 110.563 68.9629 110.468 69.0619C110.372 69.1609 110.242 69.219 110.105 69.2239H109.195C109.055 69.2192 108.923 69.1618 108.824 69.0632C108.726 68.9647 108.668 68.8324 108.664 68.6931C108.645 68.39 108.645 68.0861 108.664 67.783C108.661 67.7126 108.673 67.6424 108.699 67.5768C108.724 67.5112 108.763 67.4516 108.813 67.4018C108.863 67.3519 108.923 67.3129 108.988 67.2872C109.054 67.2614 109.124 67.2495 109.195 67.2522H110.123C110.254 67.2522 110.38 67.3041 110.472 67.3966C110.564 67.489 110.616 67.6144 110.616 67.7451V68.2381Z" fill="#1D1D1B"/>
<path d="M110.066 79.9546L110.218 80.0684V79.8409L110.066 79.9546Z" fill="#1D1D1B"/>
<path d="M111.924 118.365V124.053C111.92 124.765 111.634 125.447 111.13 125.951C110.627 126.455 109.945 126.74 109.232 126.745H66.2901C65.5776 126.74 64.8957 126.455 64.3919 125.951C63.8881 125.447 63.6029 124.765 63.5979 124.053V52.8616C63.6029 52.1491 63.8881 51.4672 64.3919 50.9634C64.8957 50.4596 65.5776 50.1744 66.2901 50.1694H109.138C109.498 50.1593 109.857 50.2213 110.194 50.3519C110.53 50.4824 110.837 50.6788 111.097 50.9295C111.357 51.1803 111.564 51.4803 111.706 51.8121C111.848 52.1439 111.922 52.5007 111.924 52.8616V58.5493" stroke="#1D1D1B" stroke-width="1.29" stroke-miterlimit="10" stroke-linecap="round"/>
<path d="M70.2146 69.8115H84.4149" stroke="#1D1D1B" stroke-width="1.29" stroke-miterlimit="10" stroke-linecap="round"/>
<path d="M70.2146 77.035H84.4149" stroke="#1D1D1B" stroke-width="1.29" stroke-miterlimit="10" stroke-linecap="round"/>
<path d="M70.2146 84.2585H84.4149" stroke="#1D1D1B" stroke-width="1.29" stroke-miterlimit="10" stroke-linecap="round"/>
<path d="M70.2146 91.5005H84.4149" stroke="#1D1D1B" stroke-width="1.29" stroke-miterlimit="10" stroke-linecap="round"/>
<path d="M70.2146 98.724H84.4149" stroke="#1D1D1B" stroke-width="1.29" stroke-miterlimit="10" stroke-linecap="round"/>
<path d="M70.2146 105.948H84.4149" stroke="#1D1D1B" stroke-width="1.29" stroke-miterlimit="10" stroke-linecap="round"/>
<path d="M70.2146 113.171H95.013" stroke="#1D1D1B" stroke-width="1.29" stroke-miterlimit="10" stroke-linecap="round"/>
</svg>
