<svg width="24" height="24" viewBox="0 0 24 24" fill="none" xmlns="http://www.w3.org/2000/svg">
<path d="M5.975 3L5.75 3.45C5.3 4.425 5 5.775 5 7.5C5 10.95 7.625 13.8 11 14.175V18.75H7.25V20.25H16.25V18.75H12.5V14.175C15.875 13.8 18.5 10.95 18.5 7.5C18.5 5.775 18.2 4.425 17.75 3.45L17.6 3H5.975ZM6.95 4.5H16.55C16.85 5.4 17 6.45 17 7.5C17 9.075 16.325 10.425 15.275 11.4L15.2 11.475C15.125 11.55 15.05 11.625 14.975 11.625C14.9 11.7 14.825 11.7 14.825 11.775C14.75 11.85 14.675 11.85 14.6 11.925C14.525 12 14.45 12 14.375 12.075C14.3 12.075 14.225 12.15 14.225 12.15C14.15 12.225 14.075 12.225 13.925 12.3C13.85 12.3 13.775 12.375 13.775 12.375C13.7 12.45 13.55 12.45 13.475 12.45C13.4 12.45 13.4 12.525 13.325 12.525C13.25 12.525 13.1 12.6 13.025 12.6C12.95 12.6 12.95 12.6 12.875 12.675H11.75C8.825 12.675 6.5 10.35 6.5 7.425V6.3L6.95 4.5Z" fill="black"/>
</svg>
